<svg version="1.1" id="Layer_1" xmlns="http://www.w3.org/2000/svg" xmlns:xlink="http://www.w3.org/1999/xlink" x="0px" y="0px"
	 width="100%" viewBox="0 0 141 150" enable-background="new 0 0 141 150" xml:space="preserve">
<path fill="#FEFEFE" opacity="1.000000" stroke="none" 
	d="
M142.000000,46.000000 
	C142.000000,80.973061 142.000000,115.946129 142.000000,150.959595 
	C95.063133,150.959595 48.126221,150.959595 1.094655,150.959595 
	C1.094655,101.101738 1.094655,51.203243 1.094655,1.152372 
	C47.999641,1.152372 94.999756,1.152372 142.000000,1.152372 
	C142.000000,11.411803 142.000000,21.737244 141.743195,32.490940 
	C141.315063,32.945152 141.143707,32.971107 140.690338,32.751732 
	C139.985657,30.630718 140.181747,28.124088 139.028625,26.993252 
	C134.968399,23.011522 130.444992,19.502092 125.925217,15.693605 
	C125.549568,15.381227 125.345947,15.188808 125.032837,14.747822 
	C124.630379,14.296500 124.337326,14.093842 123.843689,13.624939 
	C119.575752,10.863734 115.646019,8.084852 111.373138,6.013999 
	C109.671600,5.189348 107.211044,5.930836 104.881439,6.245765 
	C103.786606,8.686055 102.906364,10.839929 101.683731,13.019218 
	C99.894333,14.027763 98.447334,15.010891 96.626434,16.041151 
	C91.835899,17.378931 87.419289,18.669579 82.533920,19.957958 
	C73.342567,19.604805 64.619980,19.253916 55.737289,18.892086 
	C55.577198,18.881145 55.255680,18.921303 54.995979,18.670662 
	C53.803139,18.261744 52.869999,18.103470 51.748962,17.922443 
	C51.561066,17.899691 51.183067,17.919844 50.926929,17.684616 
	C49.774796,17.285450 48.878803,17.121511 47.717209,16.972248 
	C47.276833,17.016918 47.102051,17.046917 46.616997,17.028442 
	C45.891232,16.928926 45.475746,16.877886 44.892677,16.528111 
	C42.847794,13.438944 40.970493,10.648510 39.132114,7.496603 
	C39.148457,2.370060 36.931721,3.029428 33.817299,5.129940 
	C32.994522,5.767962 32.497986,6.377577 31.621853,6.953575 
	C25.974442,10.261501 20.706625,13.603046 15.319149,16.926414 
	C15.199491,16.908239 14.937663,17.273880 14.626146,17.462662 
	C6.374802,24.238728 -1.032224,31.064098 2.934421,43.427837 
	C3.914598,48.904575 4.949313,53.949780 5.823348,59.092720 
	C5.604964,59.300732 5.470632,59.468113 5.502868,59.511375 
	C5.639557,59.694817 5.825710,59.841393 5.996809,60.000793 
	C5.999828,60.000153 5.995906,60.006020 5.940033,60.421841 
	C7.603626,66.540260 9.323092,72.242851 11.057913,78.319542 
	C15.670729,90.769936 21.772661,101.992409 29.991859,112.009010 
	C29.998455,112.001007 29.987183,112.008743 30.089859,112.239075 
	C30.459249,112.666946 30.725962,112.864479 31.100542,113.274742 
	C31.416958,113.742027 31.679369,113.914780 32.028675,114.350883 
	C34.663269,117.801315 37.264820,120.906601 39.994186,124.240845 
	C40.407928,124.656654 40.693859,124.843498 40.989716,125.014709 
	C40.999634,124.999069 40.969490,125.021080 41.062054,125.255920 
	C41.430065,125.671593 41.705509,125.852432 41.990585,126.016167 
	C42.000217,125.999069 41.966618,126.019478 42.059158,126.254181 
	C42.426815,126.669540 42.701931,126.850197 42.987930,127.014793 
	C42.998810,126.998726 42.968231,127.023811 43.054325,127.261490 
	C43.417831,127.675652 43.695244,127.852127 43.984791,128.019928 
	C43.996925,128.011246 43.971016,128.038040 44.049362,128.277573 
	C44.406563,128.687042 44.685410,128.856995 44.977051,129.014694 
	C44.989845,129.002441 44.973671,129.025726 45.057808,129.263718 
	C45.419609,129.676743 45.697266,129.851776 45.987465,130.013397 
	C46.000000,130.000000 45.973255,130.025314 46.058762,130.262634 
	C46.421474,130.675873 46.698677,130.851791 46.975548,131.020798 
	C46.975212,131.013885 46.962254,131.036438 46.995251,131.381134 
	C49.679390,133.836563 52.330528,135.947327 55.123661,138.364716 
	C57.181900,140.114746 59.098148,141.558151 61.136986,143.316528 
	C62.682236,144.732361 63.957993,146.205353 65.564835,146.839676 
	C67.561829,147.628036 69.832504,147.723145 72.315048,148.075684 
	C73.086449,147.997025 73.527786,147.960373 74.248123,148.037842 
	C80.113335,146.511200 84.383812,143.240021 87.425552,138.002869 
	C90.215248,135.743301 92.661209,133.501160 95.399155,131.102127 
	C97.143494,129.324799 98.595848,127.704369 100.393631,126.033806 
	C102.819801,123.654976 104.900551,121.326263 107.347794,118.992973 
	C109.171501,117.401543 110.628723,115.814697 112.344574,114.071579 
	C113.102440,113.302452 113.601677,112.689590 114.337021,111.892746 
	C114.724983,111.147766 114.876846,110.586746 115.017609,110.015305 
	C115.006493,110.004875 115.022522,110.020401 115.330521,109.912758 
	C116.103371,108.871918 116.568214,107.938721 117.016174,106.999969 
	C116.999298,106.994408 117.006310,107.029228 117.254013,106.951126 
	C117.677963,106.583496 117.854225,106.293961 118.013123,106.002747 
	C117.995758,106.001076 118.014923,106.030312 118.285431,105.882614 
	C118.711388,105.162712 118.866837,104.590508 119.011292,104.009453 
	C119.000305,104.000610 119.021011,104.015884 119.278503,103.959885 
	C119.700790,103.604652 119.865585,103.305420 120.014343,103.002129 
	C119.998306,102.998070 120.013985,103.027168 120.268723,102.862541 
	C120.694824,102.129745 120.866180,101.561577 121.015030,100.994675 
	C120.992516,100.995941 121.008301,101.038185 121.265434,100.932632 
	C121.957031,100.253777 122.391495,99.680458 122.892067,98.778854 
	C123.305443,97.632797 123.652702,96.815025 124.032776,95.671089 
	C124.689659,94.237915 125.313721,93.130905 126.233353,91.837204 
	C128.727341,86.103401 130.925751,80.556282 133.370087,74.810326 
	C133.741684,73.790237 133.867371,72.969002 134.293823,71.939438 
	C137.451294,65.184616 140.079788,58.588520 139.344116,51.191055 
	C139.816422,51.136776 140.001938,51.090321 140.377075,50.940292 
	C140.789581,50.607883 140.855164,50.340427 140.828690,49.639969 
	C140.995636,48.184990 141.097366,47.124390 141.400024,46.056564 
	C141.600937,46.049343 142.000000,46.000000 142.000000,46.000000 
z"/>
<path fill="#C1C6CB" opacity="1.000000" stroke="none" 
	d="
M140.972366,32.997059 
	C141.143707,32.971107 141.315063,32.945152 141.743195,32.959599 
	C142.000000,35.370556 142.000000,37.741116 141.796875,40.576126 
	C141.593750,41.040581 141.185684,41.053207 141.116898,40.648232 
	C141.009430,38.883602 140.970749,37.523949 140.949646,35.768677 
	C140.968948,34.581055 140.970657,33.789055 140.972366,32.997059 
z"/>
<path fill="#DDDFE0" opacity="1.000000" stroke="none" 
	d="
M141.185699,41.053207 
	C141.185684,41.053207 141.593750,41.040581 141.796875,41.020290 
	C142.000000,42.388889 142.000000,43.777779 142.000000,45.583336 
	C142.000000,46.000000 141.600937,46.049343 141.336700,45.672016 
	C141.029953,44.517555 140.987442,43.740425 140.983582,42.644470 
	C141.076721,41.901501 141.131210,41.477356 141.185699,41.053207 
z"/>
<path fill="#DEECFC" opacity="1.000000" stroke="none" 
	d="
M125.937782,92.023895 
	C125.313721,93.130905 124.689659,94.237915 123.639954,95.582893 
	C122.789368,92.181862 122.364426,88.542862 121.975433,84.595116 
	C122.036263,83.197243 122.061150,82.108124 122.132729,80.664597 
	C123.228958,77.893494 124.278503,75.476791 125.641846,72.989944 
	C126.299225,71.278893 126.642815,69.637978 127.014618,67.611252 
	C128.217361,62.845623 129.391891,58.465816 130.845276,54.003437 
	C131.110062,52.953259 131.095963,51.985645 131.056366,50.643654 
	C131.192184,49.539364 131.353500,48.809460 131.824493,47.966286 
	C132.116516,46.241463 132.098862,44.629906 132.039398,42.563545 
	C133.625397,34.867725 130.625259,29.594450 124.991714,25.361458 
	C121.543144,22.770243 118.202393,20.035545 114.871063,16.959492 
	C115.274849,14.983885 115.620796,13.414069 116.268112,12.037535 
	C119.375366,14.167977 122.181259,16.105139 125.180099,18.313190 
	C126.177513,19.148239 126.985474,19.707478 127.785881,20.277346 
	C133.930695,24.652283 139.539658,29.290056 138.147278,38.123299 
	C138.010757,38.989452 139.275009,40.076412 139.942474,41.377342 
	C140.031387,42.120090 140.066895,42.546383 140.041428,43.372330 
	C139.696915,45.519726 139.413376,47.267467 138.736816,49.087730 
	C136.893570,56.822758 135.443314,64.485260 133.993057,72.147758 
	C133.867371,72.969002 133.741684,73.790237 133.052811,74.979828 
	C130.305679,80.906746 128.121735,86.465317 125.937782,92.023895 
z"/>
<path fill="#DBE8F7" opacity="1.000000" stroke="none" 
	d="
M61.014397,143.001556 
	C59.098148,141.558151 57.181900,140.114746 55.097553,138.010864 
	C52.273724,135.245712 49.617989,133.141083 46.962254,131.036438 
	C46.962254,131.036438 46.975212,131.013885 46.880096,130.790848 
	C46.586109,130.279709 46.315533,130.098877 45.973255,130.025314 
	C45.973255,130.025314 46.000000,130.000000 45.892578,129.783447 
	C45.586514,129.278778 45.316017,129.098389 44.973671,129.025726 
	C44.973671,129.025726 44.989845,129.002441 44.995213,128.754425 
	C45.002102,128.332520 45.003620,128.158661 45.003906,127.581116 
	C44.967045,124.705215 44.494202,122.015038 48.249695,121.382248 
	C56.053951,127.958115 63.551285,134.431488 71.029411,141.319138 
	C70.937439,143.317154 70.864677,144.900894 70.780640,146.729935 
	C67.236275,145.376831 64.125336,144.189194 61.014397,143.001556 
z"/>
<path fill="#4893E4" opacity="1.000000" stroke="none" 
	d="
M5.984029,58.994987 
	C4.949313,53.949780 3.914598,48.904575 3.218773,43.643314 
	C4.650334,46.101482 5.743005,48.775703 6.835676,51.449924 
	C7.780365,49.946239 7.976043,48.416405 7.987379,46.885208 
	C8.026780,41.562805 7.704268,36.215527 8.137275,30.928310 
	C8.331660,28.554789 9.988837,26.301065 10.986952,24.407703 
	C11.690403,26.563179 12.389144,28.303932 12.946125,30.403748 
	C12.222765,32.728855 11.072007,34.721600 11.162770,36.656101 
	C11.476406,43.340729 12.222667,50.005062 12.395737,56.884789 
	C11.654881,58.653645 11.488207,60.276432 10.937957,61.756630 
	C10.493863,62.951263 9.586976,63.973866 8.628476,64.857666 
	C7.579670,63.097038 6.787788,61.551529 5.995906,60.006020 
	C5.995906,60.006020 5.999828,60.000153 6.038236,59.748768 
	C6.045772,59.329918 6.014900,59.162453 5.984029,58.994987 
z"/>
<path fill="#DBE8F6" opacity="1.000000" stroke="none" 
	d="
M97.000343,15.994019 
	C98.447334,15.010891 99.894333,14.027763 102.017555,12.953979 
	C103.831398,11.610398 104.969009,10.357474 106.667816,8.486473 
	C107.595985,11.023585 108.293358,12.929834 108.860390,15.158030 
	C104.344444,23.071774 97.174286,25.850294 89.003632,26.502172 
	C89.341080,24.076557 89.675316,22.042641 90.347748,19.860741 
	C92.262993,19.383364 93.956062,19.298756 95.371277,18.627947 
	C96.154488,18.256704 96.472588,16.904203 97.000343,15.994019 
z"/>
<path fill="#358AE5" opacity="1.000000" stroke="none" 
	d="
M10.982241,23.992981 
	C9.988837,26.301065 8.331660,28.554789 8.137275,30.928310 
	C7.704268,36.215527 8.026780,41.562805 7.987379,46.885208 
	C7.976043,48.416405 7.780365,49.946239 6.835676,51.449924 
	C5.743005,48.775703 4.650334,46.101482 3.273311,43.211784 
	C-1.032224,31.064098 6.374802,24.238728 14.665156,17.873032 
	C14.679065,19.068832 14.342446,20.043051 13.721729,21.139175 
	C12.619167,22.171715 11.800704,23.082348 10.982241,23.992981 
z"/>
<path fill="#D8E9FA" opacity="1.000000" stroke="none" 
	d="
M121.939491,84.903870 
	C122.364426,88.542862 122.789368,92.181862 123.607132,95.909058 
	C123.652702,96.815025 123.305443,97.632797 122.588455,98.798187 
	C121.815247,99.776596 121.411774,100.407387 121.008301,101.038185 
	C121.008301,101.038185 120.992516,100.995941 120.750076,101.150330 
	C120.343086,101.878860 120.178535,102.453018 120.013985,103.027168 
	C120.013985,103.027168 119.998306,102.998070 119.768738,103.078239 
	C119.366455,103.444237 119.193733,103.730057 119.021011,104.015884 
	C119.021011,104.015884 119.000305,104.000610 118.737488,104.150009 
	C118.321426,104.876381 118.168175,105.453346 118.014923,106.030312 
	C118.014923,106.030312 117.995758,106.001076 117.772781,106.092323 
	C117.368637,106.465454 117.187477,106.747345 117.006310,107.029228 
	C117.006310,107.029228 116.999298,106.994408 116.713882,107.124023 
	C115.959816,108.175896 115.491165,109.098145 115.022522,110.020401 
	C115.022522,110.020401 115.006493,110.004875 114.759323,109.995361 
	C114.339874,109.997833 114.167603,110.009827 113.737717,109.818573 
	C114.020638,108.316048 114.655914,107.047028 115.082695,105.711380 
	C116.086037,102.571243 117.474304,99.322311 113.831406,96.644501 
	C114.333061,95.927895 114.706230,95.479103 115.446762,94.964729 
	C116.395813,93.352127 116.977501,91.805107 117.606796,89.952301 
	C118.381348,88.406883 119.108276,87.167244 120.124763,85.868141 
	C120.922707,85.507072 121.431099,85.205467 121.939491,84.903870 
z"/>
<path fill="#D5E6F9" opacity="1.000000" stroke="none" 
	d="
M47.942768,121.279755 
	C44.494202,122.015038 44.967045,124.705215 44.745049,127.588974 
	C44.315289,128.013031 44.143154,128.025543 43.971016,128.038040 
	C43.971016,128.038040 43.996925,128.011246 43.888664,127.789955 
	C43.580944,127.280838 43.310219,127.099220 42.968231,127.023811 
	C42.968231,127.023811 42.998810,126.998726 42.888596,126.785393 
	C42.577652,126.285263 42.307064,126.101074 41.966618,126.019478 
	C41.966618,126.019478 42.000217,125.999069 41.890781,125.786713 
	C41.510727,125.389931 41.240108,125.205505 40.969490,125.021080 
	C40.969490,125.021080 40.999634,124.999069 40.879593,124.773926 
	C40.461830,124.369820 40.164104,124.190849 39.866379,124.011879 
	C37.264820,120.906601 34.663269,117.801315 32.222000,114.113075 
	C35.193001,115.050270 37.643490,118.992889 41.633736,114.854248 
	C43.962250,116.995247 45.952511,119.137497 47.942768,121.279755 
z"/>
<path fill="#CDDBEC" opacity="1.000000" stroke="none" 
	d="
M29.985264,112.017014 
	C21.772661,101.992409 15.670729,90.769936 11.279274,78.205688 
	C11.756603,77.500923 11.931781,77.223389 12.231801,77.020065 
	C12.659229,77.426414 12.865667,77.697838 13.059952,78.320709 
	C14.011456,80.460297 14.975115,82.248436 15.989819,84.388977 
	C17.372492,87.155746 18.704117,89.570114 20.058720,92.321259 
	C21.054859,94.104942 22.028021,95.551857 23.034176,97.343697 
	C24.706303,99.796158 26.345434,101.903679 27.989674,104.357338 
	C28.337475,105.785431 28.680166,106.867386 29.033871,108.253006 
	C29.367624,109.029015 29.690369,109.501366 30.011070,109.982010 
	C30.009029,109.990295 30.034218,109.981590 30.025661,110.320732 
	C30.006491,111.112251 29.995876,111.564636 29.985264,112.017014 
z"/>
<path fill="#B2D3F5" opacity="1.000000" stroke="none" 
	d="
M32.001450,6.987194 
	C32.497986,6.377577 32.994522,5.767962 33.956375,5.434019 
	C37.913609,8.810853 33.837257,11.511011 33.622810,14.558920 
	C31.277214,15.835042 29.268253,16.985872 26.884235,18.054474 
	C25.632719,16.607103 24.756264,15.241961 24.071711,13.601528 
	C26.842892,11.213223 29.422171,9.100208 32.001450,6.987194 
z"/>
<path fill="#A0C3EA" opacity="1.000000" stroke="none" 
	d="
M139.889069,41.060883 
	C139.275009,40.076412 138.010757,38.989452 138.147278,38.123299 
	C139.539658,29.290056 133.930695,24.652283 127.785881,20.277346 
	C126.985474,19.707478 126.177513,19.148239 125.300201,18.026531 
	C125.517349,16.917149 125.807335,16.365311 126.097321,15.813473 
	C130.444992,19.502092 134.968399,23.011522 139.028625,26.993252 
	C140.181747,28.124088 139.985657,30.630718 140.690338,32.751732 
	C140.970657,33.789055 140.968948,34.581055 140.649750,35.977661 
	C140.184540,38.075138 140.036804,39.568008 139.889069,41.060883 
z"/>
<path fill="#3888DE" opacity="1.000000" stroke="none" 
	d="
M33.959450,14.433627 
	C33.837257,11.511011 37.913609,8.810853 34.282612,5.405614 
	C36.931721,3.029428 39.148457,2.370060 39.086891,7.917727 
	C39.685093,13.092548 40.367447,17.484776 40.702671,21.882843 
	C38.223515,19.403664 36.091480,16.918646 33.959450,14.433627 
z"/>
<path fill="#B6CEE8" opacity="1.000000" stroke="none" 
	d="
M108.990738,14.836082 
	C108.293358,12.929834 107.595985,11.023585 106.667816,8.486473 
	C104.969009,10.357474 103.831398,11.610398 102.359955,12.928562 
	C102.906364,10.839929 103.786606,8.686055 105.229660,6.302697 
	C109.183899,7.996892 112.575325,9.920571 115.966743,11.844252 
	C115.620796,13.414069 115.274849,14.983885 114.514305,16.933201 
	C112.396721,16.487164 110.693733,15.661623 108.990738,14.836082 
z"/>
<path fill="#94C0EE" opacity="1.000000" stroke="none" 
	d="
M100.048210,126.083939 
	C98.595848,127.704369 97.143494,129.324799 95.364761,130.642471 
	C94.330505,128.157852 96.682861,124.859207 92.823631,123.566223 
	C95.639908,120.492905 98.313370,117.732895 101.003174,115.415756 
	C100.695747,119.267067 100.371979,122.675507 100.048210,126.083939 
z"/>
<path fill="#59A0ED" opacity="1.000000" stroke="none" 
	d="
M41.049797,21.877001 
	C40.367447,17.484776 39.685093,13.092548 39.047966,8.279200 
	C40.970493,10.648510 42.847794,13.438944 44.910622,16.914173 
	C45.730968,20.063513 46.365788,22.528057 46.653107,24.978794 
	C44.553677,23.935658 42.801735,22.906328 41.049797,21.877001 
z"/>
<path fill="#CAE1FA" opacity="1.000000" stroke="none" 
	d="
M29.991859,112.009010 
	C29.995876,111.564636 30.006491,111.112251 30.375002,110.313782 
	C32.481850,108.980576 34.230801,107.993469 36.271347,107.182648 
	C38.140457,109.857796 39.717968,112.356659 41.295479,114.855515 
	C37.643490,118.992889 35.193001,115.050270 32.188961,113.767929 
	C31.679369,113.914780 31.416958,113.742027 31.002041,113.039963 
	C30.526175,112.397881 30.256680,112.203308 29.987183,112.008743 
	C29.987183,112.008743 29.998455,112.001007 29.991859,112.009010 
z"/>
<path fill="#8CBAEE" opacity="1.000000" stroke="none" 
	d="
M116.268112,12.037533 
	C112.575325,9.920571 109.183899,7.996892 105.444252,6.016280 
	C107.211044,5.930836 109.671600,5.189348 111.373138,6.013999 
	C115.646019,8.084852 119.575752,10.863734 123.944031,13.880064 
	C124.544067,14.599785 124.843155,14.798136 125.142242,14.996487 
	C125.345947,15.188808 125.549568,15.381227 125.925217,15.693608 
	C125.807335,16.365311 125.517349,16.917149 125.107254,17.755642 
	C122.181259,16.105139 119.375366,14.167977 116.268112,12.037533 
z"/>
<path fill="#ACD0F7" opacity="1.000000" stroke="none" 
	d="
M100.393639,126.033813 
	C100.371979,122.675507 100.695747,119.267067 101.066833,115.140625 
	C101.641693,113.914253 102.169243,113.405884 103.101685,112.927063 
	C104.343010,114.310532 105.179451,115.664467 106.029953,117.313721 
	C106.356438,118.071877 106.668861,118.534714 106.981293,118.997551 
	C104.900551,121.326263 102.819801,123.654976 100.393639,126.033813 
z"/>
<path fill="#A4C5E9" opacity="1.000000" stroke="none" 
	d="
M134.293823,71.939438 
	C135.443314,64.485260 136.893570,56.822758 138.702682,49.451035 
	C139.060150,50.227505 139.058762,50.713192 139.057373,51.198879 
	C140.079788,58.588520 137.451294,65.184616 134.293823,71.939438 
z"/>
<path fill="#3886DB" opacity="1.000000" stroke="none" 
	d="
M73.969124,147.923721 
	C73.527786,147.960373 73.086449,147.997025 72.323418,147.596466 
	C71.991180,144.919052 71.980629,142.678864 72.203171,140.242798 
	C74.620438,138.680511 76.804604,137.314102 78.997665,136.388763 
	C78.984825,138.882843 78.963089,140.935883 78.750961,143.226486 
	C77.701866,143.959534 76.843155,144.454987 75.716187,145.078125 
	C74.977959,145.817215 74.507988,146.428635 74.026978,147.261444 
	C74.015945,147.482849 73.969124,147.923721 73.969124,147.923721 
z"/>
<path fill="#85BBF3" opacity="1.000000" stroke="none" 
	d="
M92.680817,123.879532 
	C96.682861,124.859207 94.330505,128.157852 95.072769,130.799362 
	C92.661209,133.501160 90.215248,135.743301 87.109688,138.003662 
	C86.239868,138.015793 86.029648,138.009689 85.871399,137.746902 
	C85.942764,137.317184 85.962173,137.144119 86.297043,136.828171 
	C90.862862,134.113434 91.580696,130.178116 90.959435,125.439484 
	C91.601051,124.754700 92.140938,124.317116 92.680817,123.879532 
z"/>
<path fill="#79B0EA" opacity="1.000000" stroke="none" 
	d="
M14.005827,21.017267 
	C14.342446,20.043051 14.679065,19.068832 14.976673,17.684248 
	C14.937663,17.273880 15.199491,16.908239 15.766281,16.965754 
	C17.226381,17.020206 18.119690,17.017143 19.008993,17.436945 
	C19.859024,19.342617 20.713064,20.825424 21.387756,22.594658 
	C19.486664,24.263161 17.764915,25.645235 15.667092,26.938725 
	C14.862620,24.905849 14.434223,22.961559 14.005827,21.017267 
z"/>
<path fill="#5399E5" opacity="1.000000" stroke="none" 
	d="
M19.013000,17.014082 
	C18.119690,17.017143 17.226381,17.020206 15.885939,16.983929 
	C20.706625,13.603046 25.974442,10.261501 31.621853,6.953576 
	C29.422171,9.100208 26.842892,11.213223 23.745934,13.662585 
	C21.823170,15.003983 20.418085,16.009033 19.013000,17.014082 
z"/>
<path fill="#75A9E2" opacity="1.000000" stroke="none" 
	d="
M85.819427,138.003571 
	C86.029648,138.009689 86.239868,138.015793 86.765945,138.021103 
	C84.383812,143.240021 80.113335,146.511200 74.248123,148.037842 
	C73.969124,147.923721 74.015945,147.482849 74.344864,147.200684 
	C75.110664,146.262497 75.547554,145.606476 75.984444,144.950455 
	C76.843155,144.454987 77.701866,143.959534 79.058304,143.093002 
	C81.643829,141.149155 83.731628,139.576370 85.819427,138.003571 
z"/>
<path fill="#A3C3E8" opacity="1.000000" stroke="none" 
	d="
M12.010811,76.885139 
	C11.931781,77.223389 11.756603,77.500923 11.263918,77.831589 
	C9.323092,72.242851 7.603626,66.540260 5.940033,60.421841 
	C6.787788,61.551529 7.579670,63.097038 8.668556,65.227493 
	C9.957134,68.230141 10.948709,70.647850 11.957217,73.446945 
	C11.986372,74.847267 11.998591,75.866203 12.010811,76.885139 
z"/>
<path fill="#C5CFDC" opacity="1.000000" stroke="none" 
	d="
M126.233353,91.837204 
	C128.121735,86.465317 130.305679,80.906746 132.806900,75.178665 
	C130.925751,80.556282 128.727341,86.103401 126.233353,91.837204 
z"/>
<path fill="#97BCE5" opacity="1.000000" stroke="none" 
	d="
M71.970085,140.438675 
	C71.980629,142.678864 71.991180,144.919052 71.993355,147.638458 
	C69.832504,147.723145 67.561829,147.628036 65.564835,146.839676 
	C63.957993,146.205353 62.682236,144.732361 61.136986,143.316528 
	C64.125336,144.189194 67.236275,145.376831 70.780640,146.729935 
	C70.864677,144.900894 70.937439,143.317154 71.209412,141.103180 
	C71.595764,140.461548 71.782928,140.450119 71.970085,140.438675 
z"/>
<path fill="#BFCCDB" opacity="1.000000" stroke="none" 
	d="
M55.897385,18.903028 
	C64.619980,19.253916 73.342567,19.604805 82.530685,19.971668 
	C82.996208,19.987644 82.989258,20.010744 82.698608,20.308748 
	C76.277603,20.743961 70.147247,20.881168 63.615318,21.010868 
	C60.774963,20.303247 58.336174,19.603138 55.897385,18.903028 
z"/>
<path fill="#5A9EE7" opacity="1.000000" stroke="none" 
	d="
M47.000603,24.992601 
	C46.365788,22.528057 45.730968,20.063513 45.078205,17.212906 
	C45.475746,16.877886 45.891232,16.928926 46.741287,17.233654 
	C47.395134,17.743467 47.672363,17.889803 48.150898,18.194069 
	C48.859425,18.639568 49.424606,18.817343 49.997246,19.238422 
	C50.004704,19.481728 50.027103,19.968052 50.015457,20.401985 
	C50.002739,22.569262 50.001667,24.302605 49.674053,26.054180 
	C48.565208,25.712475 47.782906,25.352537 47.000603,24.992601 
z"/>
<path fill="#C9D9EA" opacity="1.000000" stroke="none" 
	d="
M96.626434,16.041151 
	C96.472588,16.904203 96.154488,18.256704 95.371277,18.627947 
	C93.956062,19.298756 92.262993,19.383364 89.908844,19.857353 
	C87.084236,20.004879 85.036751,20.007811 82.989258,20.010742 
	C82.989258,20.010744 82.996208,19.987644 82.999435,19.973934 
	C87.419289,18.669579 91.835899,17.378931 96.626434,16.041151 
z"/>
<path fill="#CBD8E8" opacity="1.000000" stroke="none" 
	d="
M46.995251,131.381134 
	C49.617989,133.141083 52.273724,135.245712 54.955563,137.704224 
	C52.330528,135.947327 49.679390,133.836563 46.995251,131.381134 
z"/>
<path fill="#D8E9FA" opacity="1.000000" stroke="none" 
	d="
M107.347786,118.992973 
	C106.668861,118.534714 106.356438,118.071877 106.319962,117.172462 
	C108.070480,115.490997 109.545059,114.246109 111.146072,113.244446 
	C111.543655,113.734406 111.814796,113.981125 112.085945,114.227844 
	C110.628723,115.814697 109.171501,117.401543 107.347786,118.992973 
z"/>
<path fill="#BCD5F0" opacity="1.000000" stroke="none" 
	d="
M50.027103,19.968052 
	C50.027103,19.968052 50.004704,19.481728 50.133942,18.999228 
	C50.569809,18.317766 50.876438,18.118805 51.183067,17.919844 
	C51.183067,17.919844 51.561066,17.899691 51.979050,18.205963 
	C53.349915,18.648590 54.302795,18.784946 55.255680,18.921303 
	C55.255680,18.921303 55.577198,18.881145 55.737289,18.892086 
	C58.336174,19.603138 60.774963,20.303247 63.612358,21.250004 
	C64.010963,21.496653 64.018349,21.975334 63.713367,22.005697 
	C63.206924,22.069183 63.005459,22.102306 62.403419,22.125668 
	C59.659931,21.808647 57.317017,21.501390 54.731766,20.911646 
	C53.001987,20.408789 51.514545,20.188421 50.027103,19.968052 
z"/>
<path fill="#7B8C9F" opacity="1.000000" stroke="none" 
	d="
M139.344131,51.191055 
	C139.058762,50.713192 139.060150,50.227505 139.095703,49.378513 
	C139.413376,47.267467 139.696915,45.519726 140.252228,43.386757 
	C140.524002,43.001526 140.944946,42.963291 140.944946,42.963291 
	C140.987442,43.740425 141.029953,44.517555 141.135788,45.679237 
	C141.097366,47.124390 140.995636,48.184990 140.661469,49.758022 
	C140.235809,50.492981 140.155289,50.750786 140.187469,51.043865 
	C140.001938,51.090321 139.816422,51.136776 139.344131,51.191055 
z"/>
<path fill="#BFCCDB" opacity="1.000000" stroke="none" 
	d="
M50.926929,17.684616 
	C50.876438,18.118805 50.569809,18.317766 50.126480,18.755920 
	C49.424606,18.817343 48.859425,18.639568 48.142998,17.952248 
	C47.991753,17.442701 47.982807,16.957575 47.982807,16.957575 
	C48.878803,17.121511 49.774796,17.285450 50.926929,17.684616 
z"/>
<path fill="#C7CCD2" opacity="1.000000" stroke="none" 
	d="
M115.330521,109.912758 
	C115.491165,109.098145 115.959816,108.175896 116.730759,107.129578 
	C116.568214,107.938721 116.103371,108.871918 115.330521,109.912758 
z"/>
<path fill="#C7CCD2" opacity="1.000000" stroke="none" 
	d="
M112.344574,114.071579 
	C111.814796,113.981125 111.543655,113.734406 111.135361,113.245522 
	C110.998207,113.003357 111.005569,113.020012 111.238724,112.910431 
	C111.686127,112.534233 111.900375,112.267624 112.425888,111.999069 
	C113.151848,111.991837 113.566559,111.986549 114.010605,112.005844 
	C114.039948,112.030426 114.100922,112.076721 114.100922,112.076721 
	C113.601677,112.689590 113.102440,113.302452 112.344574,114.071579 
z"/>
<path fill="#BFCCDB" opacity="1.000000" stroke="none" 
	d="
M54.995979,18.670662 
	C54.302795,18.784946 53.349915,18.648590 52.166946,18.228714 
	C52.869999,18.103470 53.803139,18.261744 54.995979,18.670662 
z"/>
<path fill="#C7CCD2" opacity="1.000000" stroke="none" 
	d="
M121.265434,100.932632 
	C121.411774,100.407387 121.815247,99.776596 122.522339,99.126472 
	C122.391495,99.680458 121.957031,100.253777 121.265434,100.932632 
z"/>
<path fill="#C7CCD2" opacity="1.000000" stroke="none" 
	d="
M113.995331,110.021812 
	C114.167603,110.009827 114.339874,109.997833 114.770432,110.005783 
	C114.876846,110.586746 114.724983,111.147766 114.337021,111.892746 
	C114.100922,112.076721 114.039948,112.030426 114.011429,111.679382 
	C113.987045,110.892838 113.991188,110.457321 113.995331,110.021812 
z"/>
<path fill="#C7CCD2" opacity="1.000000" stroke="none" 
	d="
M120.268723,102.862541 
	C120.178535,102.453018 120.343086,101.878860 120.772583,101.149063 
	C120.866180,101.561577 120.694824,102.129745 120.268723,102.862541 
z"/>
<path fill="#C7CCD2" opacity="1.000000" stroke="none" 
	d="
M118.285431,105.882614 
	C118.168175,105.453346 118.321426,104.876381 118.748474,104.158859 
	C118.866837,104.590508 118.711388,105.162712 118.285431,105.882614 
z"/>
<path fill="#CBD8E8" opacity="1.000000" stroke="none" 
	d="
M44.049362,128.277573 
	C44.143154,128.025543 44.315289,128.013031 44.746284,127.992661 
	C45.003620,128.158661 45.002102,128.332520 44.982418,128.766663 
	C44.685410,128.856995 44.406563,128.687042 44.049362,128.277573 
z"/>
<path fill="#A0C3EA" opacity="1.000000" stroke="none" 
	d="
M125.032837,14.747824 
	C124.843155,14.798136 124.544067,14.599785 124.144630,14.146309 
	C124.337326,14.093842 124.630379,14.296500 125.032837,14.747824 
z"/>
<path fill="#CDDBEC" opacity="1.000000" stroke="none" 
	d="
M30.089861,112.239075 
	C30.256680,112.203308 30.526175,112.397881 30.894173,112.827232 
	C30.725962,112.864479 30.459249,112.666946 30.089861,112.239075 
z"/>
<path fill="#A4C5E9" opacity="1.000000" stroke="none" 
	d="
M140.377075,50.940292 
	C140.155289,50.750786 140.235809,50.492981 140.596252,50.152405 
	C140.855164,50.340427 140.789581,50.607883 140.377075,50.940292 
z"/>
<path fill="#CBD8E8" opacity="1.000000" stroke="none" 
	d="
M46.058762,130.262634 
	C46.315533,130.098877 46.586109,130.279709 46.880432,130.797760 
	C46.698677,130.851791 46.421474,130.675873 46.058762,130.262634 
z"/>
<path fill="#CBD8E8" opacity="1.000000" stroke="none" 
	d="
M45.057808,129.263718 
	C45.316017,129.098389 45.586514,129.278778 45.880043,129.796844 
	C45.697266,129.851776 45.419609,129.676743 45.057808,129.263718 
z"/>
<path fill="#C7CCD2" opacity="1.000000" stroke="none" 
	d="
M119.278503,103.959885 
	C119.193733,103.730057 119.366455,103.444237 119.784775,103.082298 
	C119.865585,103.305420 119.700790,103.604652 119.278503,103.959885 
z"/>
<path fill="#CBD8E8" opacity="1.000000" stroke="none" 
	d="
M43.054325,127.261490 
	C43.310219,127.099220 43.580944,127.280838 43.876530,127.798637 
	C43.695244,127.852127 43.417831,127.675652 43.054325,127.261490 
z"/>
<path fill="#BCD5F0" opacity="1.000000" stroke="none" 
	d="
M47.717209,16.972248 
	C47.982807,16.957575 47.991753,17.442701 47.999649,17.684523 
	C47.672363,17.889803 47.395134,17.743467 47.051567,17.282125 
	C47.102051,17.046917 47.276833,17.016918 47.717209,16.972248 
z"/>
<path fill="#A3C3E8" opacity="1.000000" stroke="none" 
	d="
M5.823349,59.092720 
	C6.014900,59.162453 6.045772,59.329918 6.035216,59.749413 
	C5.825710,59.841393 5.639557,59.694817 5.502868,59.511375 
	C5.470632,59.468113 5.604964,59.300732 5.823349,59.092720 
z"/>
<path fill="#CBD8E8" opacity="1.000000" stroke="none" 
	d="
M42.059158,126.254181 
	C42.307064,126.101074 42.577652,126.285263 42.877712,126.801460 
	C42.701931,126.850197 42.426815,126.669540 42.059158,126.254181 
z"/>
<path fill="#CBD8E8" opacity="1.000000" stroke="none" 
	d="
M41.062054,125.255920 
	C41.240108,125.205505 41.510727,125.389931 41.881149,125.803810 
	C41.705509,125.852432 41.430065,125.671593 41.062054,125.255920 
z"/>
<path fill="#C7CCD2" opacity="1.000000" stroke="none" 
	d="
M117.254013,106.951126 
	C117.187477,106.747345 117.368637,106.465454 117.790146,106.093994 
	C117.854225,106.293961 117.677963,106.583496 117.254013,106.951126 
z"/>
<path fill="#CBD8E8" opacity="1.000000" stroke="none" 
	d="
M39.994186,124.240845 
	C40.164104,124.190849 40.461830,124.369820 40.869675,124.789566 
	C40.693859,124.843498 40.407928,124.656654 39.994186,124.240845 
z"/>
<path fill="#3C7DC1" opacity="1.000000" stroke="none" 
	d="
M140.983582,42.644470 
	C140.944946,42.963291 140.524002,43.001526 140.313202,42.987099 
	C140.066895,42.546383 140.031387,42.120090 139.942474,41.377342 
	C140.036804,39.568008 140.184540,38.075138 140.632172,36.373283 
	C140.970749,37.523949 141.009430,38.883602 141.116913,40.648232 
	C141.131210,41.477356 141.076721,41.901501 140.983582,42.644470 
z"/>
<path fill="#10171F" opacity="1.000000" stroke="none" 
	d="
M46.653107,24.978794 
	C47.782906,25.352537 48.565208,25.712475 49.985489,26.258202 
	C52.086380,26.656284 53.549294,26.868576 55.362064,27.267738 
	C59.490170,27.703377 63.268410,27.952145 67.445061,28.338223 
	C69.228027,28.447187 70.612587,28.418842 72.406418,28.504379 
	C75.544838,28.395733 78.273979,28.173201 81.406128,28.039139 
	C84.206238,27.716360 86.603333,27.305117 89.000435,26.893871 
	C97.174286,25.850294 104.344444,23.071774 108.860390,15.158030 
	C110.693733,15.661623 112.396721,16.487164 114.456467,17.338993 
	C118.202393,20.035545 121.543144,22.770243 124.991714,25.361458 
	C130.625259,29.594450 133.625397,34.867725 131.826813,42.866928 
	C131.608948,45.109924 131.561874,46.594738 131.514816,48.079552 
	C131.353500,48.809460 131.192184,49.539364 130.845154,50.893795 
	C130.628433,52.374214 130.597427,53.230110 130.566406,54.086006 
	C129.391891,58.465816 128.217361,62.845623 126.758995,67.835648 
	C126.092781,69.983932 125.710411,71.522011 125.328049,73.060089 
	C124.278503,75.476791 123.228958,77.893494 121.848602,80.858994 
	C120.956924,82.914398 120.396065,84.420998 119.835213,85.927605 
	C119.108276,87.167244 118.381348,88.406883 117.335983,90.164322 
	C116.371498,92.131516 115.725449,93.580917 115.079391,95.030312 
	C114.706230,95.479103 114.333061,95.927895 113.535355,96.819763 
	C112.052605,99.458435 110.994400,101.654030 109.621262,104.007477 
	C107.103142,107.076057 104.899963,109.986786 102.696785,112.897522 
	C102.169243,113.405884 101.641693,113.914253 101.050491,114.697754 
	C98.313370,117.732895 95.639908,120.492905 92.823631,123.566223 
	C92.140938,124.317116 91.601051,124.754700 90.643044,125.568253 
	C88.449257,127.849739 86.673592,129.755280 84.564697,131.751129 
	C82.483902,133.210205 80.736343,134.578949 78.988777,135.947708 
	C76.804604,137.314102 74.620438,138.680511 72.203171,140.242798 
	C71.782928,140.450119 71.595764,140.461548 71.228607,140.688904 
	C63.551285,134.431488 56.053951,127.958115 48.249695,121.382248 
	C45.952511,119.137497 43.962250,116.995247 41.633736,114.854248 
	C39.717968,112.356659 38.140457,109.857796 36.225075,106.846748 
	C34.557144,104.563545 33.227085,102.792534 31.851471,100.683792 
	C30.213512,97.892265 28.621113,95.438454 27.007524,92.636185 
	C25.708145,90.069649 24.429956,87.851562 22.970284,85.349533 
	C21.871223,83.040504 20.953644,81.015427 20.075466,78.627380 
	C19.085583,75.839500 18.056301,73.414574 17.050579,70.624588 
	C16.401129,68.503555 15.728117,66.747589 15.101400,64.618149 
	C14.366534,61.722153 13.585375,59.199635 12.804215,56.677120 
	C12.222667,50.005062 11.476406,43.340729 11.162770,36.656101 
	C11.072007,34.721600 12.222765,32.728855 13.223658,30.268478 
	C14.443023,28.858536 15.243095,27.942923 16.043167,27.027309 
	C17.764915,25.645235 19.486664,24.263161 21.686684,22.495735 
	C23.863070,20.785824 25.561182,19.461264 27.259293,18.136703 
	C29.268253,16.985872 31.277214,15.835042 33.622810,14.558920 
	C36.091480,16.918646 38.223515,19.403664 40.702671,21.882843 
	C42.801735,22.906328 44.553677,23.935658 46.653107,24.978794 
M67.013969,119.063545 
	C67.013969,119.063545 66.896111,119.097168 67.187027,119.708740 
	C69.110565,121.621429 70.733727,121.314537 72.713493,118.795967 
	C75.467331,116.480240 78.221169,114.164513 81.646980,111.640091 
	C82.740623,109.453194 83.731102,107.206055 84.961647,105.099113 
	C85.889381,103.510658 86.841156,101.467789 88.311234,100.810715 
	C89.517426,100.271591 91.502731,101.475563 92.352875,102.012756 
	C90.437088,102.989296 88.521301,103.965836 86.605515,104.942375 
	C86.785316,105.368477 86.965126,105.794586 87.144928,106.220688 
	C88.700233,106.744072 90.255531,107.267448 92.391640,107.986275 
	C92.689804,105.670334 92.932335,103.786530 93.675911,101.647659 
	C94.000404,101.833519 94.324898,102.019371 94.781067,103.014832 
	C95.710518,106.130447 94.829964,108.130043 91.831505,109.886444 
	C87.680321,112.318069 83.945206,115.459976 79.423355,118.502968 
	C77.591263,120.144821 75.759171,121.786674 73.902031,123.450981 
	C76.614128,126.288246 79.538658,128.651733 83.043129,126.270821 
	C86.388252,123.998154 89.117371,120.818779 92.713768,117.749336 
	C96.093086,113.796150 99.472397,109.842957 103.365891,105.288269 
	C100.427383,103.548386 98.232681,102.248917 95.726532,100.357155 
	C93.207466,98.436371 90.688393,96.515594 87.816368,94.028419 
	C82.180206,89.478699 82.430962,89.674408 86.912956,83.931808 
	C90.301414,79.590309 92.944618,74.667145 96.269188,69.379745 
	C97.476128,66.924057 98.683067,64.468369 100.353638,61.427891 
	C100.554497,58.315716 100.755356,55.203541 100.990211,51.098675 
	C100.980606,49.763275 100.971008,48.427876 101.967384,46.743961 
	C102.232635,46.979713 102.497887,47.215466 102.322693,48.226402 
	C101.946381,52.305450 105.044945,52.665569 107.432205,54.007011 
	C106.930504,55.333298 106.428802,56.659584 105.517433,58.594826 
	C104.803062,60.981197 104.088684,63.367573 102.985611,66.301552 
	C102.194855,68.234222 101.404099,70.166885 99.998001,72.569527 
	C96.262932,78.043510 92.527863,83.517487 88.368912,89.612694 
	C91.085060,91.373573 94.010994,93.270439 97.203148,95.763542 
	C98.448517,96.554001 99.693893,97.344460 101.250656,98.770210 
	C103.799919,102.374733 105.841400,101.382889 107.639618,98.071831 
	C108.555748,96.384956 109.492371,94.709198 110.991791,92.505005 
	C113.157249,88.393204 115.322701,84.281410 117.915962,79.598793 
	C118.680923,77.095139 119.445885,74.591484 120.840332,71.706764 
	C121.478439,69.897194 122.116547,68.087624 123.179276,65.732010 
	C123.838036,63.177040 124.496796,60.622070 125.616112,57.475399 
	C125.992004,54.996128 126.367897,52.516861 127.051254,49.340019 
	C127.234200,47.591084 127.417145,45.842144 127.894363,43.213379 
	C128.203781,37.932938 129.567978,32.233170 122.164566,29.419163 
	C122.164566,33.582542 122.164566,37.321075 121.989983,41.829369 
	C121.594795,43.868393 121.199608,45.907421 120.393127,48.567432 
	C120.094749,50.313091 119.796364,52.058746 119.220833,54.483051 
	C118.763107,56.968460 118.305382,59.453873 117.227730,62.283279 
	C116.724159,63.809399 116.220589,65.335518 115.188927,67.338043 
	C114.512749,69.563026 113.836571,71.788017 112.864418,74.724419 
	C111.917442,78.246552 111.018906,81.782799 109.998734,85.283600 
	C109.612061,86.610512 108.945053,87.855713 107.764717,89.497383 
	C106.491783,90.048912 105.218842,90.600449 104.086151,91.061134 
	C104.086151,91.061134 104.052971,90.897362 103.980453,90.169441 
	C105.202698,88.879745 106.424934,87.590042 107.674431,86.271576 
	C107.143883,84.906517 106.591782,83.486008 106.008133,81.984337 
	C104.405441,82.181206 102.970009,82.357529 101.344498,82.006454 
	C101.623558,81.531090 101.902611,81.055717 102.922340,80.404846 
	C105.152596,77.330582 107.382851,74.256325 110.045616,70.639847 
	C110.946785,67.796387 111.847946,64.952919 113.107903,61.491402 
	C113.795898,58.694073 114.483887,55.896748 115.634224,52.478970 
	C116.080521,49.334454 116.526817,46.189941 117.257523,42.294556 
	C117.424225,40.207371 117.590919,38.120186 117.993607,35.304043 
	C117.997063,34.542427 118.000519,33.780811 118.176254,32.144547 
	C119.143494,26.770117 117.427124,22.905903 111.708122,20.653141 
	C111.045517,21.032293 110.382912,21.411444 109.181870,22.098408 
	C108.495865,22.843912 107.809860,23.589415 106.516205,24.491842 
	C104.958412,25.562387 103.400620,26.632933 101.162933,27.825800 
	C99.748962,28.498014 98.334999,29.170229 96.190575,29.999943 
	C94.101425,30.580826 92.012283,31.161707 88.993385,31.697092 
	C77.999336,31.799536 67.005287,31.901978 55.576889,31.577953 
	C54.996563,31.605030 54.416237,31.632105 53.178204,31.388412 
	C52.474705,31.348387 51.771202,31.308359 50.318661,30.939302 
	C47.620140,30.256676 44.921619,29.574047 41.835903,28.316771 
	C39.915211,27.174833 37.994514,26.032896 35.785381,24.283241 
	C33.270439,21.306227 30.745354,19.606874 27.688301,24.537319 
	C29.836121,26.206110 31.846312,27.767967 34.261139,29.848776 
	C36.180672,30.886826 38.100204,31.924875 40.630100,33.369923 
	C43.737087,34.290531 46.844070,35.211143 50.388817,36.803211 
	C64.278091,39.817345 78.218239,39.579334 93.015251,37.511204 
	C96.009277,36.480602 100.523735,38.301628 101.816460,32.849003 
	C102.538071,32.227844 103.259674,31.606686 104.632721,31.177603 
	C105.497940,31.618763 106.363159,32.059925 106.526352,32.784874 
	C105.534416,34.079693 104.542480,35.374512 103.550545,36.669331 
	C104.685684,37.455925 105.764656,38.349262 106.977798,38.987614 
	C107.665207,39.349331 108.572701,39.292797 109.098442,40.132248 
	C107.390305,40.492241 105.682159,40.852234 103.352127,40.758747 
	C99.561882,41.153557 95.771629,41.548367 91.494141,41.817146 
	C90.910873,41.987682 90.327599,42.158215 88.858253,42.343079 
	C78.239586,42.240334 67.620926,42.137592 56.504192,41.569756 
	C55.613983,41.534729 54.723778,41.499699 53.147728,41.239178 
	C52.432041,41.157928 51.716354,41.076683 50.586815,40.562904 
	C50.006508,40.535492 49.426197,40.508080 48.045094,40.268635 
	C45.742775,39.478439 43.877384,39.972095 44.031693,42.663036 
	C44.111458,44.054127 45.155369,45.920135 46.325539,46.589874 
	C47.939533,47.513630 50.084595,47.509499 52.663509,48.413006 
	C61.737667,48.991634 70.810699,49.588810 79.886551,50.139420 
	C83.335739,50.348671 86.468094,49.691837 88.771149,47.342987 
	C89.904137,49.922771 91.037125,52.502556 91.964417,55.397854 
	C91.964417,55.397854 91.897499,55.768505 91.167793,55.556065 
	C87.771881,55.157333 84.375977,54.758602 80.216698,54.214287 
	C78.434380,54.323643 76.652054,54.432995 74.035439,54.342415 
	C72.046227,54.409466 70.057007,54.476517 67.372978,54.335186 
	C65.921692,54.341949 64.470398,54.348709 62.203644,54.032509 
	C60.185249,53.825191 58.166855,53.617870 55.675144,53.105671 
	C55.119244,53.052288 54.563339,52.998909 53.451374,52.482178 
	C51.281002,52.096256 49.110634,51.710331 46.174469,51.002354 
	C44.802303,50.990883 43.430138,50.979416 41.831295,50.357677 
	C40.597542,49.152153 39.363792,47.946629 38.257008,46.042553 
	C38.797081,44.035984 39.337151,42.029411 39.979160,39.294720 
	C37.973858,37.871429 35.968559,36.448139 33.781254,34.365410 
	C30.941605,32.201458 28.199419,29.885761 25.205116,27.962603 
	C24.261374,27.356462 22.210365,27.240759 21.403984,27.860563 
	C17.138611,31.139029 13.318860,34.816498 15.284036,41.821960 
	C15.602331,43.897511 15.920627,45.973061 16.122740,48.813725 
	C16.262611,52.502853 17.902632,53.651566 21.620510,52.716682 
	C27.936832,51.128410 27.980143,51.300644 26.262264,43.615570 
	C27.599253,43.565002 28.936243,43.514435 30.094549,44.094746 
	C30.304886,45.098057 30.515223,46.101364 30.817230,47.806919 
	C31.245922,48.874855 31.674614,49.942791 31.934776,51.731506 
	C30.968330,52.887493 30.001884,54.043476 28.273413,55.131203 
	C25.934637,55.841766 23.488415,56.325264 21.302782,57.359467 
	C20.223196,57.870312 19.074701,59.317204 18.905842,60.478470 
	C18.271172,64.843285 20.100138,65.600784 26.868490,63.577103 
	C29.916372,62.653625 32.964256,61.730152 36.757603,60.804943 
	C38.689026,60.612511 40.620453,60.420078 42.712658,60.879238 
	C43.285042,62.301750 43.857430,63.724262 44.412975,65.841736 
	C44.998135,67.279289 45.583294,68.716835 46.187454,70.931419 
	C47.159664,72.945938 48.131874,74.960449 49.136559,77.694366 
	C54.050682,85.147324 58.964806,92.600273 64.130836,100.732147 
	C66.280823,101.878403 68.599640,102.798279 70.530525,104.238327 
	C72.257767,105.526505 73.557259,107.388229 74.859589,109.699142 
	C74.335632,110.582367 73.811676,111.465584 73.089897,111.486198 
	C72.179382,109.669456 71.268860,107.852715 70.358337,106.035973 
	C69.226631,107.550209 68.045006,109.030907 66.991989,110.598022 
	C66.652443,111.103325 66.651222,111.835968 66.136734,112.419624 
	C66.136734,112.419624 65.961891,112.103447 66.006256,111.327515 
	C65.466980,109.840530 64.927704,108.353546 63.720451,106.667625 
	C53.804840,95.754921 46.414211,83.309807 40.915203,69.654610 
	C40.185333,67.842178 38.431515,65.540550 36.808815,65.223953 
	C34.903259,64.852173 32.622879,66.401535 29.749599,67.039207 
	C28.512350,67.393005 27.275101,67.746803 25.311506,68.027214 
	C23.987820,68.468521 22.664131,68.909821 20.814917,69.526329 
	C21.931452,71.784485 22.833929,73.609718 23.852495,76.136261 
	C29.620781,91.391914 38.552284,104.591698 50.145912,116.828140 
	C52.402874,118.949226 54.659836,121.070312 57.179211,123.776108 
	C58.729389,125.200073 60.279572,126.624039 62.152054,128.653793 
	C63.945732,130.087006 65.739243,131.520432 67.533134,132.953384 
	C70.906494,135.647980 73.583237,134.621307 76.396317,130.924118 
	C73.469055,129.216141 70.732605,127.619514 67.432159,125.725616 
	C65.904282,124.442421 64.376404,123.159225 62.525593,121.219048 
	C59.751465,118.632515 56.977341,116.045990 53.945885,112.870674 
	C45.294914,103.599663 38.887711,92.900795 33.917645,80.654655 
	C32.989120,79.989044 32.060600,79.323433 30.436571,78.723640 
	C29.613512,77.481377 28.790453,76.239105 28.681679,75.064507 
	C29.708704,75.064018 30.744799,75.125603 31.750418,74.978645 
	C31.866373,74.961700 31.812681,73.783882 31.837645,73.144287 
	C30.538603,73.098152 29.239561,73.052010 27.904099,72.311348 
	C28.947149,71.118294 29.990200,69.925240 31.835703,68.791092 
	C33.858513,70.071014 35.985138,71.229111 37.788883,72.766121 
	C38.050522,72.989067 36.765465,75.027145 36.021725,75.569763 
	C35.433510,75.108994 34.845295,74.648224 34.257084,74.187447 
	C34.054173,74.494049 33.851257,74.800652 33.648346,75.107254 
	C34.505669,75.470947 35.362995,75.834641 36.166214,76.932579 
	C37.494282,79.833626 38.450699,82.987183 40.218647,85.589371 
	C46.005619,94.107040 52.087891,102.424065 58.281250,111.442291 
	C59.889420,112.889603 61.497585,114.336906 63.293373,116.307648 
	C63.598785,116.507683 63.904198,116.707718 64.395706,117.494110 
	C65.232185,118.036652 66.068657,118.579193 67.013969,119.063545 
z"/>
<path fill="#BDCAD9" opacity="1.000000" stroke="none" 
	d="
M131.824493,47.966286 
	C131.561874,46.594738 131.608948,45.109924 131.868607,43.321728 
	C132.098862,44.629906 132.116516,46.241463 131.824493,47.966286 
z"/>
<path fill="#BDCAD9" opacity="1.000000" stroke="none" 
	d="
M125.641838,72.989944 
	C125.710411,71.522011 126.092781,69.983932 126.730774,68.221466 
	C126.642815,69.637978 126.299225,71.278893 125.641838,72.989944 
z"/>
<path fill="#BDCAD9" opacity="1.000000" stroke="none" 
	d="
M120.124763,85.868141 
	C120.396065,84.420998 120.956924,82.914398 121.801910,81.213394 
	C122.061150,82.108124 122.036263,83.197243 121.975433,84.595123 
	C121.431099,85.205467 120.922707,85.507072 120.124763,85.868141 
z"/>
<path fill="#BDCAD9" opacity="1.000000" stroke="none" 
	d="
M130.845291,54.003437 
	C130.597427,53.230110 130.628433,52.374214 130.870651,51.268177 
	C131.095963,51.985645 131.110062,52.953259 130.845291,54.003437 
z"/>
<path fill="#5CA1EB" opacity="1.000000" stroke="none" 
	d="
M12.395737,56.884789 
	C13.585375,59.199635 14.366534,61.722153 14.718134,64.696373 
	C13.505812,67.787239 12.723047,70.426392 11.940283,73.065552 
	C10.948709,70.647850 9.957134,68.230141 8.925480,65.442612 
	C9.586976,63.973866 10.493863,62.951263 10.937957,61.756630 
	C11.488207,60.276432 11.654881,58.653645 12.395737,56.884789 
z"/>
<path fill="#5B9EE5" opacity="1.000000" stroke="none" 
	d="
M15.667092,26.938725 
	C15.243095,27.942923 14.443023,28.858536 13.365417,29.909418 
	C12.389144,28.303932 11.690403,26.563179 10.986952,24.407703 
	C11.800704,23.082348 12.619167,22.171715 13.721728,21.139175 
	C14.434223,22.961559 14.862620,24.905849 15.667092,26.938725 
z"/>
<path fill="#D1E4F8" opacity="1.000000" stroke="none" 
	d="
M89.003632,26.502174 
	C86.603333,27.305117 84.206238,27.716360 81.411545,27.644299 
	C80.810654,20.459824 75.816956,22.268177 71.516251,22.053133 
	C68.723068,22.020979 66.370705,21.998156 64.018349,21.975334 
	C64.018349,21.975334 64.010963,21.496653 64.013924,21.257515 
	C70.147247,20.881168 76.277603,20.743961 82.698608,20.308746 
	C85.036751,20.007811 87.084236,20.004879 89.570641,20.005333 
	C89.675316,22.042641 89.341080,24.076557 89.003632,26.502174 
z"/>
<path fill="#BFD3E9" opacity="1.000000" stroke="none" 
	d="
M109.936195,103.849625 
	C110.994400,101.654030 112.052605,99.458435 113.406860,97.087570 
	C117.474304,99.322311 116.086037,102.571243 115.082695,105.711380 
	C114.655914,107.047028 114.020638,108.316048 113.737717,109.818573 
	C113.991188,110.457321 113.987045,110.892838 113.982086,111.654808 
	C113.566559,111.986549 113.151848,111.991837 112.145538,111.983368 
	C111.368019,111.957420 111.182114,111.945229 111.032150,111.594238 
	C110.690788,108.786827 110.313492,106.318230 109.936195,103.849625 
z"/>
<path fill="#BFD3E9" opacity="1.000000" stroke="none" 
	d="
M115.446762,94.964729 
	C115.725449,93.580917 116.371498,92.131516 117.288368,90.470100 
	C116.977501,91.805107 116.395813,93.352127 115.446762,94.964729 
z"/>
<path fill="#A9C9EC" opacity="1.000000" stroke="none" 
	d="
M27.028713,92.984642 
	C28.621113,95.438454 30.213512,97.892265 31.508495,100.688431 
	C30.135572,102.024254 29.060066,103.017731 27.984562,104.011200 
	C26.345434,101.903679 24.706303,99.796158 23.336407,97.185562 
	C24.746666,95.449875 25.887690,94.217262 27.028713,92.984642 
z"/>
<path fill="#8DBBED" opacity="1.000000" stroke="none" 
	d="
M20.036064,78.990341 
	C20.953644,81.015427 21.871223,83.040504 22.828758,85.706039 
	C21.924391,88.225815 20.980068,90.105148 20.035744,91.984482 
	C18.704117,89.570114 17.372492,87.155746 16.356005,84.311371 
	C17.792786,82.251015 18.914425,80.620682 20.036064,78.990341 
z"/>
<path fill="#7AB1EC" opacity="1.000000" stroke="none" 
	d="
M20.075466,78.627380 
	C18.914425,80.620682 17.792786,82.251015 16.304958,83.958969 
	C14.975115,82.248436 14.011456,80.460297 13.428141,78.244469 
	C14.204441,76.650482 14.499619,75.436363 15.023947,74.330948 
	C15.577841,73.163208 16.350132,72.099060 17.027020,70.989655 
	C18.056301,73.414574 19.085583,75.839500 20.075466,78.627380 
z"/>
<path fill="#B8D2EF" opacity="1.000000" stroke="none" 
	d="
M27.989672,104.357330 
	C29.060066,103.017731 30.135572,102.024254 31.554054,101.026146 
	C33.227085,102.792534 34.557144,104.563545 35.933479,106.670456 
	C34.230801,107.993469 32.481850,108.980576 30.383558,109.974640 
	C30.034218,109.981590 30.009029,109.990295 29.993681,109.683609 
	C29.659840,108.901062 29.341349,108.425201 29.022858,107.949348 
	C28.680166,106.867386 28.337475,105.785431 27.989672,104.357330 
z"/>
<path fill="#9AC1EB" opacity="1.000000" stroke="none" 
	d="
M20.058720,92.321259 
	C20.980068,90.105148 21.924391,88.225815 23.010241,85.989975 
	C24.429956,87.851562 25.708145,90.069649 27.007524,92.636185 
	C25.887690,94.217262 24.746666,95.449875 23.303413,96.840630 
	C22.028021,95.551857 21.054859,94.104942 20.058720,92.321259 
z"/>
<path fill="#69A5E6" opacity="1.000000" stroke="none" 
	d="
M17.050579,70.624588 
	C16.350132,72.099060 15.577841,73.163208 15.023947,74.330948 
	C14.499619,75.436363 14.204441,76.650482 13.440294,77.893028 
	C12.865667,77.697838 12.659229,77.426414 12.231801,77.020065 
	C11.998591,75.866203 11.986372,74.847267 11.957218,73.446945 
	C12.723047,70.426392 13.505812,67.787239 14.671841,65.069855 
	C15.728117,66.747589 16.401129,68.503555 17.050579,70.624588 
z"/>
<path fill="#CAE1FA" opacity="1.000000" stroke="none" 
	d="
M29.033867,108.253006 
	C29.341349,108.425201 29.659840,108.901062 29.995722,109.675323 
	C29.690369,109.501366 29.367624,109.029015 29.033867,108.253006 
z"/>
<path fill="#95BDE7" opacity="1.000000" stroke="none" 
	d="
M26.884235,18.054474 
	C25.561182,19.461264 23.863070,20.785824 21.866030,22.209309 
	C20.713064,20.825424 19.859024,19.342617 19.008993,17.436947 
	C20.418085,16.009033 21.823170,15.003983 23.554031,13.937876 
	C24.756264,15.241961 25.632719,16.607103 26.884235,18.054474 
z"/>
<path fill="#BAD8F8" opacity="1.000000" stroke="none" 
	d="
M109.621262,104.007477 
	C110.313492,106.318230 110.690788,108.786827 111.029289,111.866432 
	C110.995522,112.658287 111.000542,112.839149 111.005569,113.020012 
	C111.005569,113.020012 110.998207,113.003357 111.008919,113.002289 
	C109.545059,114.246109 108.070480,115.490997 106.305893,116.877151 
	C105.179451,115.664467 104.343010,114.310532 103.101685,112.927063 
	C104.899963,109.986786 107.103142,107.076057 109.621262,104.007477 
z"/>
<path fill="#56A0F0" opacity="1.000000" stroke="none" 
	d="
M78.997665,136.388763 
	C80.736343,134.578949 82.483902,133.210205 84.592812,132.148773 
	C85.296631,133.961105 85.639107,135.466080 85.981583,136.971069 
	C85.962173,137.144119 85.942764,137.317184 85.871399,137.746918 
	C83.731628,139.576370 81.643829,141.149155 79.248688,142.855423 
	C78.963089,140.935883 78.984825,138.882843 78.997665,136.388763 
z"/>
<path fill="#56A0F0" opacity="1.000000" stroke="none" 
	d="
M75.716187,145.078125 
	C75.547554,145.606476 75.110664,146.262497 74.355896,146.979279 
	C74.507988,146.428635 74.977959,145.817215 75.716187,145.078125 
z"/>
<path fill="#75A9E2" opacity="1.000000" stroke="none" 
	d="
M86.297043,136.828171 
	C85.639107,135.466080 85.296631,133.961105 84.926041,132.058472 
	C86.673592,129.755280 88.449257,127.849739 90.541313,125.815437 
	C91.580696,130.178116 90.862862,134.113434 86.297043,136.828171 
z"/>
<path fill="#6BA4E1" opacity="1.000000" stroke="none" 
	d="
M55.012203,27.080866 
	C53.549294,26.868576 52.086380,26.656284 50.312035,26.239969 
	C50.001667,24.302605 50.002739,22.569262 50.015457,20.401985 
	C51.514545,20.188421 53.001987,20.408789 54.739544,21.323757 
	C54.997173,23.705860 55.004688,25.393362 55.012203,27.080866 
z"/>
<path fill="#82ABD7" opacity="1.000000" stroke="none" 
	d="
M55.362064,27.267738 
	C55.004688,25.393362 54.997173,23.705860 54.981880,21.606245 
	C57.317017,21.501390 59.659931,21.808647 62.453293,22.508801 
	C61.911480,26.523491 65.357292,26.675608 67.046654,28.200912 
	C63.268410,27.952145 59.490170,27.703377 55.362064,27.267738 
z"/>
<path fill="#A6CDF7" opacity="1.000000" stroke="none" 
	d="
M67.445061,28.338223 
	C65.357292,26.675608 61.911480,26.523491 62.853863,22.518566 
	C63.005459,22.102306 63.206924,22.069183 63.713367,22.005695 
	C66.370705,21.998156 68.723068,22.020979 71.528336,22.450054 
	C71.986542,24.701038 71.991844,26.545769 71.997147,28.390497 
	C70.612587,28.418842 69.228027,28.447187 67.445061,28.338223 
z"/>
<path fill="#D8E9FA" opacity="1.000000" stroke="none" 
	d="
M111.238724,112.910431 
	C111.000542,112.839149 110.995522,112.658287 110.993362,112.205238 
	C111.182114,111.945229 111.368019,111.957420 111.834282,111.985313 
	C111.900375,112.267624 111.686127,112.534233 111.238724,112.910431 
z"/>
<path fill="#AFD0F3" opacity="1.000000" stroke="none" 
	d="
M74.869736,54.542351 
	C76.652054,54.432995 78.434380,54.323643 80.607742,54.634449 
	C85.972351,60.037361 90.945923,65.020111 95.919495,70.002853 
	C92.944618,74.667145 90.301414,79.590309 86.912956,83.931808 
	C82.430962,89.674408 82.180206,89.478699 87.922653,94.692329 
	C85.415771,100.642509 80.783241,101.357330 75.718384,100.395287 
	C75.912590,94.676468 75.883499,89.399696 76.153061,84.138229 
	C76.227509,82.685143 76.810089,80.889244 77.807182,79.910339 
	C86.150299,71.719414 85.187195,63.802685 74.869247,57.852585 
	C74.787056,56.581448 74.828392,55.561897 74.869736,54.542351 
z"/>
<path fill="#98C0EC" opacity="1.000000" stroke="none" 
	d="
M30.505062,67.117706 
	C32.622879,66.401535 34.903259,64.852173 36.808815,65.223953 
	C38.431515,65.540550 40.185333,67.842178 40.915203,69.654610 
	C46.414211,83.309807 53.804840,95.754921 63.935345,107.148499 
	C64.043037,108.418877 63.935829,109.208366 63.493084,109.955475 
	C61.457237,110.214806 59.756931,110.516518 58.056625,110.818237 
	C52.087891,102.424065 46.005619,94.107040 40.218647,85.589371 
	C38.450699,82.987183 37.494282,79.833626 36.089821,76.482933 
	C36.013424,76.033287 36.196133,76.225281 36.196133,76.225281 
	C36.765465,75.027145 38.050522,72.989067 37.788883,72.766121 
	C35.985138,71.229111 33.858513,70.071014 31.342010,68.345078 
	C30.733900,67.638611 30.619482,67.378159 30.505062,67.117706 
z"/>
<path fill="#B0D1F3" opacity="1.000000" stroke="none" 
	d="
M63.878929,100.053230 
	C58.964806,92.600273 54.050682,85.147324 49.479187,77.292252 
	C50.592873,75.616531 51.450451,74.386513 52.118271,73.060890 
	C53.900387,69.523407 54.772053,65.135429 60.027531,65.402969 
	C58.250675,69.232964 58.485023,72.606758 61.281803,75.207367 
	C66.004288,79.598602 66.744797,84.979965 66.255898,90.954842 
	C66.013458,93.917725 66.269562,96.921402 65.896973,99.937103 
	C64.955528,99.996132 64.417229,100.024681 63.878929,100.053230 
z"/>
<path fill="#7EB2E9" opacity="1.000000" stroke="none" 
	d="
M30.127331,67.078461 
	C30.619482,67.378159 30.733900,67.638611 30.940784,68.315620 
	C29.990200,69.925240 28.947149,71.118294 27.799879,72.984436 
	C27.786238,74.103958 27.876816,74.550400 27.967394,74.996841 
	C28.790453,76.239105 29.613512,77.481377 30.834133,79.024719 
	C32.110340,79.990273 32.988987,80.654739 33.867634,81.319206 
	C38.887711,92.900795 45.294914,103.599663 54.003712,113.520111 
	C52.675476,114.852676 51.289417,115.535805 49.903358,116.218941 
	C38.552284,104.591698 29.620781,91.391914 23.878534,75.386490 
	C24.615665,72.458008 25.326757,70.279305 26.037851,68.100601 
	C27.275101,67.746803 28.512350,67.393005 30.127331,67.078461 
z"/>
<path fill="#6CA8E8" opacity="1.000000" stroke="none" 
	d="
M92.187866,37.457073 
	C78.218239,39.579334 64.278091,39.817345 50.210449,36.108181 
	C50.377289,34.031544 50.722496,32.649940 51.067703,31.268333 
	C51.771202,31.308359 52.474705,31.348387 53.601151,31.757233 
	C54.686478,32.085510 55.348858,32.044968 56.011242,32.004425 
	C67.005287,31.901978 77.999336,31.799536 89.506577,32.106213 
	C90.742462,34.162579 91.465164,35.809826 92.187866,37.457073 
z"/>
<path fill="#91BFF1" opacity="1.000000" stroke="none" 
	d="
M88.489906,46.483753 
	C86.468094,49.691837 83.335739,50.348671 79.886551,50.139420 
	C70.810699,49.588810 61.737667,48.991634 52.340477,47.799332 
	C52.707119,45.708233 53.396793,44.230804 54.406540,42.791443 
	C55.485157,42.564625 56.243710,42.299736 57.002258,42.034847 
	C67.620926,42.137592 78.239586,42.240334 89.348236,42.986038 
	C89.887093,44.057739 89.935959,44.486481 89.712166,45.009071 
	C89.148682,45.583519 88.857857,46.064110 88.545639,46.532166 
	C88.524261,46.519627 88.489906,46.483753 88.489906,46.483753 
z"/>
<path fill="#9CC3EE" opacity="1.000000" stroke="none" 
	d="
M64.004883,100.392685 
	C64.417229,100.024681 64.955528,99.996132 66.261154,100.074890 
	C69.888245,100.402512 72.748024,100.622810 75.607796,100.843109 
	C80.783241,101.357330 85.415771,100.642509 88.099129,94.975525 
	C90.688393,96.515594 93.207466,98.436371 95.713959,100.924324 
	C95.350723,101.729401 95.000053,101.967308 94.649391,102.205223 
	C94.324898,102.019371 94.000404,101.833519 93.376572,101.825714 
	C93.077240,102.003761 93.142685,101.906891 93.142685,101.906891 
	C91.502731,101.475563 89.517426,100.271591 88.311234,100.810715 
	C86.841156,101.467789 85.889381,103.510658 84.961647,105.099113 
	C83.731102,107.206055 82.740623,109.453194 81.251083,111.401550 
	C78.918617,110.440971 76.982056,109.718925 75.045494,108.996880 
	C73.557259,107.388229 72.257767,105.526505 70.530525,104.238327 
	C68.599640,102.798279 66.280823,101.878403 64.004883,100.392685 
z"/>
<path fill="#77ABE3" opacity="1.000000" stroke="none" 
	d="
M94.715225,102.610031 
	C95.000053,101.967308 95.350723,101.729401 95.869690,101.220467 
	C98.232681,102.248917 100.427383,103.548386 103.365891,105.288269 
	C99.472397,109.842957 96.093086,113.796150 91.994003,117.879837 
	C89.271957,118.458252 87.280518,119.190483 85.264061,119.267494 
	C83.534889,119.333527 81.777077,118.649857 80.031929,118.297737 
	C83.945206,115.459976 87.680321,112.318069 91.831505,109.886444 
	C94.829964,108.130043 95.710518,106.130447 94.715225,102.610031 
z"/>
<path fill="#A1C6EF" opacity="1.000000" stroke="none" 
	d="
M96.936928,95.167313 
	C94.010994,93.270439 91.085060,91.373573 88.368912,89.612694 
	C92.527863,83.517487 96.262932,78.043510 100.480484,72.785492 
	C101.369209,75.527756 101.775444,78.054054 102.181671,80.580353 
	C101.902611,81.055717 101.623558,81.531090 101.456650,82.290634 
	C101.568810,82.574821 101.554718,82.623642 101.211143,82.637421 
	C100.957878,84.421616 101.048195,86.192032 101.112198,88.212555 
	C101.100426,88.629684 101.114967,88.796707 100.842484,89.144150 
	C99.349274,91.272148 98.143105,93.219727 96.936928,95.167313 
z"/>
<path fill="#AFD0F3" opacity="1.000000" stroke="none" 
	d="
M60.014492,65.000160 
	C54.772053,65.135429 53.900387,69.523407 52.118271,73.060890 
	C51.450451,74.386513 50.592873,75.616531 49.462948,76.932556 
	C48.131874,74.960449 47.159664,72.945938 46.589874,70.501823 
	C48.001842,69.343315 49.085762,68.697380 50.007858,67.870903 
	C53.692726,64.568138 57.384869,61.268806 60.941658,57.830956 
	C61.878586,56.925362 62.339573,55.527363 63.019112,54.355476 
	C64.470398,54.348709 65.921692,54.341949 67.699188,54.894135 
	C68.020981,56.358246 68.016563,57.263412 67.761055,58.388039 
	C65.011475,60.738388 62.512985,62.869274 60.014492,65.000160 
z"/>
<path fill="#196ECA" opacity="1.000000" stroke="none" 
	d="
M15.466707,41.057293 
	C13.318860,34.816498 17.138611,31.139029 21.403984,27.860563 
	C22.210365,27.240759 24.261374,27.356462 25.205116,27.962603 
	C28.199419,29.885761 30.941605,32.201458 33.535816,34.729813 
	C32.765858,35.484043 32.241337,35.873867 31.397890,36.132778 
	C26.048365,33.420044 24.890251,33.802326 21.609463,39.010166 
	C19.320900,39.693775 17.393803,40.375534 15.466707,41.057293 
z"/>
<path fill="#A5C9EF" opacity="1.000000" stroke="none" 
	d="
M96.094345,69.691299 
	C90.945923,65.020111 85.972351,60.037361 80.989426,54.707241 
	C84.375977,54.758602 87.771881,55.157333 91.706436,55.961891 
	C94.793381,58.249367 97.341690,60.131020 99.889999,62.012672 
	C98.683067,64.468369 97.476128,66.924057 96.094345,69.691299 
z"/>
<path fill="#76B1F1" opacity="1.000000" stroke="none" 
	d="
M29.035439,55.199463 
	C30.001884,54.043476 30.968330,52.887493 32.358936,51.329117 
	C34.565414,49.531517 36.347729,48.136311 38.130043,46.741104 
	C39.363792,47.946629 40.597542,49.152153 41.635269,50.812752 
	C39.630207,54.447441 37.821171,57.627060 36.012138,60.806679 
	C32.964256,61.730152 29.916372,62.653625 26.474133,63.206093 
	C27.064995,60.289879 28.050217,57.744671 29.035439,55.199463 
z"/>
<path fill="#5194DB" opacity="1.000000" stroke="none" 
	d="
M103.974030,41.212227 
	C105.682159,40.852234 107.390305,40.492241 109.230682,39.757019 
	C109.362923,39.381786 109.383842,39.341217 109.653610,39.308231 
	C110.215561,39.057285 110.507759,38.839321 110.973404,38.932026 
	C113.088951,40.510269 115.031029,41.777847 116.973114,43.045425 
	C116.526817,46.189941 116.080521,49.334454 115.044601,52.624924 
	C112.925766,52.494743 111.396568,52.218613 109.871353,51.547966 
	C109.294182,49.725643 108.713028,48.297829 108.098549,46.877998 
	C108.065224,46.885986 108.087196,46.950890 108.197052,46.595238 
	C107.886047,46.131134 107.465179,46.022690 107.017914,45.951191 
	C106.991516,45.988140 107.058167,45.927719 106.980362,45.551834 
	C105.928185,44.938461 104.953819,44.700970 103.986877,44.138229 
	C103.987541,42.946056 103.980782,42.079144 103.974030,41.212227 
z"/>
<path fill="#A5C9EF" opacity="1.000000" stroke="none" 
	d="
M62.611382,54.193993 
	C62.339573,55.527363 61.878586,56.925362 60.941658,57.830956 
	C57.384869,61.268806 53.692726,64.568138 50.007858,67.870903 
	C49.085762,68.697380 48.001842,69.343315 46.580376,70.113312 
	C45.583294,68.716835 44.998135,67.279289 44.809647,65.442833 
	C48.853699,61.166138 52.501076,57.288342 56.148460,53.410545 
	C58.166855,53.617870 60.185249,53.825191 62.611382,54.193993 
z"/>
<path fill="#63A1E3" opacity="1.000000" stroke="none" 
	d="
M79.727646,118.400352 
	C81.777077,118.649857 83.534889,119.333527 85.264061,119.267494 
	C87.280518,119.190483 89.271957,118.458252 91.695755,118.024155 
	C89.117371,120.818779 86.388252,123.998154 83.043129,126.270821 
	C79.538658,128.651733 76.614128,126.288246 73.902031,123.450981 
	C75.759171,121.786674 77.591263,120.144821 79.727646,118.400352 
z"/>
<path fill="#8ABAED" opacity="1.000000" stroke="none" 
	d="
M74.952545,109.348007 
	C76.982056,109.718925 78.918617,110.440971 80.915100,111.505905 
	C78.221169,114.164513 75.467331,116.480240 71.969925,118.895203 
	C69.782936,119.028679 68.339523,119.062927 66.896111,119.097168 
	C66.896111,119.097168 67.013969,119.063545 66.956512,118.750366 
	C66.002579,117.927376 65.106094,117.417557 64.209610,116.907745 
	C63.904198,116.707718 63.598785,116.507683 63.419090,115.815048 
	C64.750542,114.861351 65.956276,114.400261 67.552811,113.954315 
	C69.692619,113.387848 71.441643,112.806244 73.206360,112.262367 
	C73.222054,112.300102 73.287712,112.348801 73.287720,112.348801 
	C73.811676,111.465584 74.335632,110.582367 74.952545,109.348007 
z"/>
<path fill="#80B7F2" opacity="1.000000" stroke="none" 
	d="
M108.405823,89.138153 
	C108.945053,87.855713 109.612061,86.610512 109.998734,85.283600 
	C111.018906,81.782799 111.917442,78.246552 113.359924,74.435806 
	C115.066338,76.154671 116.277245,78.162140 117.488159,80.169609 
	C115.322701,84.281410 113.157249,88.393204 110.591873,92.410286 
	C109.596581,91.256424 109.001198,90.197289 108.405823,89.138153 
z"/>
<path fill="#9DC8F6" opacity="1.000000" stroke="none" 
	d="
M55.911800,53.258110 
	C52.501076,57.288342 48.853699,61.166138 44.818066,65.095352 
	C43.857430,63.724262 43.285042,62.301750 42.951454,60.382614 
	C45.128010,57.595451 47.065769,55.304916 49.326595,53.157066 
	C51.102253,53.181675 52.554848,53.063599 54.007439,52.945526 
	C54.563339,52.998909 55.119244,53.052288 55.911800,53.258110 
z"/>
<path fill="#1973D4" opacity="1.000000" stroke="none" 
	d="
M111.983078,21.139465 
	C117.427124,22.905903 119.143494,26.770117 117.742722,32.539894 
	C113.914085,30.068468 110.518967,27.201693 107.123856,24.334919 
	C107.809860,23.589415 108.495865,22.843912 109.767502,21.998640 
	C110.896446,21.645737 111.439766,21.392601 111.983078,21.139465 
z"/>
<path fill="#277BD6" opacity="1.000000" stroke="none" 
	d="
M106.820030,24.413380 
	C110.518967,27.201693 113.914085,30.068468 117.656586,32.977219 
	C118.000519,33.780811 117.997063,34.542427 117.511299,35.651703 
	C114.952286,35.350758 112.875572,34.702152 110.514648,33.842484 
	C109.243881,33.285763 108.257324,32.940105 107.265091,32.568878 
	C107.259399,32.543304 107.228378,32.501087 107.228378,32.501087 
	C106.363159,32.059925 105.497940,31.618763 104.267883,30.745972 
	C103.216301,29.444054 102.529564,28.573763 101.842827,27.703476 
	C103.400620,26.632933 104.958412,25.562387 106.820030,24.413380 
z"/>
<path fill="#8FC0F5" opacity="1.000000" stroke="none" 
	d="
M49.003529,53.014381 
	C47.065769,55.304916 45.128010,57.595451 42.871063,60.056816 
	C40.620453,60.420078 38.689026,60.612511 36.384869,60.805809 
	C37.821171,57.627060 39.630207,54.447441 41.748608,51.117889 
	C43.430138,50.979416 44.802303,50.990883 46.616356,51.453907 
	C47.706673,52.275101 48.355103,52.644741 49.003529,53.014381 
z"/>
<path fill="#0A1F36" opacity="1.000000" stroke="none" 
	d="
M21.970932,39.008316 
	C24.890251,33.802326 26.048365,33.420044 31.486916,36.536114 
	C31.864199,38.996529 31.833529,40.922699 31.867693,42.897614 
	C31.932526,42.946362 31.845705,42.809319 31.567654,42.875954 
	C30.950811,43.116352 30.612022,43.290108 30.273232,43.463863 
	C28.936243,43.514435 27.599253,43.565002 25.781822,43.798309 
	C24.571486,43.559155 23.841591,43.137264 23.006838,42.409401 
	C22.591631,41.071720 22.281281,40.040020 21.970932,39.008316 
z"/>
<path fill="#98C4F4" opacity="1.000000" stroke="none" 
	d="
M102.552010,80.492599 
	C101.775444,78.054054 101.369209,75.527756 100.788162,72.550507 
	C101.404099,70.166885 102.194855,68.234222 103.569931,66.115891 
	C105.973862,67.680840 107.793488,69.431450 109.613113,71.182060 
	C107.382851,74.256325 105.152596,77.330582 102.552010,80.492599 
z"/>
<path fill="#3A89DE" opacity="1.000000" stroke="none" 
	d="
M23.111696,42.715374 
	C23.841591,43.137264 24.571486,43.559155 25.596157,44.099228 
	C27.980143,51.300644 27.936832,51.128410 21.620510,52.716682 
	C17.902632,53.651566 16.262611,52.502853 16.525789,48.414162 
	C18.989792,46.248188 21.050745,44.481781 23.111696,42.715374 
z"/>
<path fill="#88BBF1" opacity="1.000000" stroke="none" 
	d="
M109.829361,70.910950 
	C107.793488,69.431450 105.973862,67.680840 103.764282,65.842087 
	C104.088684,63.367573 104.803062,60.981197 106.105003,58.303787 
	C108.711418,59.378319 110.730263,60.743889 112.749107,62.109459 
	C111.847946,64.952919 110.946785,67.796387 109.829361,70.910950 
z"/>
<path fill="#1465BD" opacity="1.000000" stroke="none" 
	d="
M122.164566,41.059612 
	C122.164566,37.321075 122.164566,33.582542 122.164566,29.419163 
	C129.567978,32.233170 128.203781,37.932938 127.436646,43.565083 
	C125.374138,42.964397 123.769348,42.012005 122.164566,41.059612 
z"/>
<path fill="#8EB9E7" opacity="1.000000" stroke="none" 
	d="
M100.121819,61.720284 
	C97.341690,60.131020 94.793381,58.249367 92.071289,56.068108 
	C91.897499,55.768505 91.964417,55.397854 92.422104,55.303200 
	C93.965790,54.143604 95.051788,53.078667 96.534073,52.006248 
	C97.721123,51.948402 98.511864,51.898041 99.581314,51.862831 
	C100.225418,51.949116 100.590820,52.020241 100.956215,52.091362 
	C100.755356,55.203541 100.554497,58.315716 100.121819,61.720284 
z"/>
<path fill="#5B9DE4" opacity="1.000000" stroke="none" 
	d="
M28.654427,55.165333 
	C28.050217,57.744671 27.064995,60.289879 26.073057,63.237526 
	C20.100138,65.600784 18.271172,64.843285 18.905842,60.478470 
	C19.074701,59.317204 20.223196,57.870312 21.302782,57.359467 
	C23.488415,56.325264 25.934637,55.841766 28.654427,55.165333 
z"/>
<path fill="#418CDC" opacity="1.000000" stroke="none" 
	d="
M67.996162,126.022888 
	C70.732605,127.619514 73.469055,129.216141 76.396317,130.924118 
	C73.583237,134.621307 70.906494,135.647980 67.533134,132.953384 
	C65.739243,131.520432 63.945732,130.087006 62.414280,128.332397 
	C64.449722,127.348305 66.222946,126.685600 67.996162,126.022888 
z"/>
<path fill="#89BCF4" opacity="1.000000" stroke="none" 
	d="
M108.085266,89.317764 
	C109.001198,90.197289 109.596581,91.256424 110.305840,92.671989 
	C109.492371,94.709198 108.555748,96.384956 107.639618,98.071831 
	C105.841400,101.382889 103.799919,102.374733 101.246826,98.131058 
	C102.143967,95.378593 103.044930,93.265289 103.945908,91.151978 
	C105.218842,90.600449 106.491783,90.048912 108.085266,89.317764 
z"/>
<path fill="#BCD5F0" opacity="1.000000" stroke="none" 
	d="
M72.406418,28.504379 
	C71.991844,26.545769 71.986542,24.701038 71.969154,22.459389 
	C75.816956,22.268177 80.810654,20.459824 81.008545,27.555832 
	C78.273979,28.173201 75.544838,28.395733 72.406418,28.504379 
z"/>
<path fill="#7CB5F2" opacity="1.000000" stroke="none" 
	d="
M54.086472,42.753372 
	C53.396793,44.230804 52.707119,45.708233 52.009811,47.544239 
	C50.084595,47.509499 47.939533,47.513630 46.325539,46.589874 
	C45.155369,45.920135 44.111458,44.054127 44.031693,42.663036 
	C43.877384,39.972095 45.742775,39.478439 48.519890,40.623940 
	C49.663349,40.984642 50.332008,40.990040 51.000668,40.995438 
	C51.716354,41.076683 52.432041,41.157928 53.505760,41.572601 
	C53.971066,42.179794 54.045288,42.462242 54.086472,42.753372 
z"/>
<path fill="#73A8E2" opacity="1.000000" stroke="none" 
	d="
M112.928505,61.800430 
	C110.730263,60.743889 108.711418,59.378319 106.309837,57.999310 
	C106.428802,56.659584 106.930504,55.333298 107.608009,53.667061 
	C107.783813,53.327114 107.756042,53.375023 108.082565,53.318100 
	C108.895180,52.821613 109.381271,52.382046 109.867363,51.942482 
	C111.396568,52.218613 112.925766,52.494743 114.813423,52.935146 
	C114.483887,55.896748 113.795898,58.694073 112.928505,61.800430 
z"/>
<path fill="#4F97E4" opacity="1.000000" stroke="none" 
	d="
M125.155563,58.067101 
	C124.496796,60.622070 123.838036,63.177040 122.586342,65.852615 
	C120.611488,64.628578 119.229568,63.283932 117.847656,61.939281 
	C118.305382,59.453873 118.763107,56.968460 119.730270,54.217693 
	C121.878334,55.323921 123.516945,56.695511 125.155563,58.067101 
z"/>
<path fill="#5499E2" opacity="1.000000" stroke="none" 
	d="
M92.601562,37.484138 
	C91.465164,35.809826 90.742462,34.162579 89.971451,32.128960 
	C92.012283,31.161707 94.101425,30.580826 96.709152,30.243160 
	C98.582703,31.356855 99.937691,32.227337 101.292671,33.097816 
	C100.523735,38.301628 96.009277,36.480602 92.601562,37.484138 
z"/>
<path fill="#1F2A36" opacity="1.000000" stroke="none" 
	d="
M96.137779,52.013729 
	C95.051788,53.078667 93.965790,54.143604 92.524956,55.145443 
	C91.037125,52.502556 89.904137,49.922771 88.630524,46.913368 
	C88.489906,46.483753 88.524261,46.519627 88.890228,46.673088 
	C90.153015,46.379204 91.049828,45.931858 92.290451,45.506210 
	C96.098343,46.449467 96.123146,49.228851 96.137779,52.013729 
z"/>
<path fill="#6EA9E9" opacity="1.000000" stroke="none" 
	d="
M50.024635,116.523544 
	C51.289417,115.535805 52.675476,114.852676 54.132378,113.814499 
	C56.977341,116.045990 59.751465,118.632515 62.216736,121.571320 
	C60.244186,122.346191 58.580490,122.768799 56.916794,123.191406 
	C54.659836,121.070312 52.402874,118.949226 50.024635,116.523544 
z"/>
<path fill="#63A7F0" opacity="1.000000" stroke="none" 
	d="
M38.193527,46.391830 
	C36.347729,48.136311 34.565414,49.531517 32.443199,50.968727 
	C31.674614,49.942791 31.245922,48.874855 31.099405,47.236794 
	C31.536289,45.380882 31.690998,44.095100 31.845705,42.809319 
	C31.845705,42.809319 31.932526,42.946362 32.251892,42.947868 
	C35.006577,41.973866 37.441898,40.998356 39.877220,40.022842 
	C39.337151,42.029411 38.797081,44.035984 38.193527,46.391830 
z"/>
<path fill="#4896E9" opacity="1.000000" stroke="none" 
	d="
M50.693184,31.103819 
	C50.722496,32.649940 50.377289,34.031544 49.991570,35.772453 
	C46.844070,35.211143 43.737087,34.290531 40.320190,32.805351 
	C40.747883,31.124325 41.485489,30.007874 42.223099,28.891422 
	C44.921619,29.574047 47.620140,30.256676 50.693184,31.103819 
z"/>
<path fill="#277CD8" opacity="1.000000" stroke="none" 
	d="
M23.006838,42.409401 
	C21.050745,44.481781 18.989792,46.248188 16.583881,48.031601 
	C15.920627,45.973061 15.602331,43.897511 15.375372,41.439629 
	C17.393803,40.375534 19.320900,39.693775 21.609463,39.010166 
	C22.281281,40.040020 22.591631,41.071720 23.006838,42.409401 
z"/>
<path fill="#7DB0E5" opacity="1.000000" stroke="none" 
	d="
M96.534073,52.006248 
	C96.123146,49.228851 96.098343,46.449467 91.965164,45.397896 
	C90.858986,45.150326 90.421898,45.032772 89.984818,44.915218 
	C89.935959,44.486481 89.887093,44.057739 89.791275,42.978874 
	C90.327599,42.158215 90.910873,41.987682 91.934265,42.148193 
	C95.218864,43.442188 100.100693,40.928253 99.703156,47.181892 
	C99.380562,48.898483 99.341583,50.373081 99.302612,51.847675 
	C98.511864,51.898041 97.721123,51.948402 96.534073,52.006248 
z"/>
<path fill="#74AEEC" opacity="1.000000" stroke="none" 
	d="
M117.702057,79.884201 
	C116.277245,78.162140 115.066338,76.154671 113.507912,74.080101 
	C113.836571,71.788017 114.512749,69.563026 115.782532,67.256989 
	C117.654373,68.813232 118.932610,70.450531 120.210846,72.087830 
	C119.445885,74.591484 118.680923,77.095139 117.702057,79.884201 
z"/>
<path fill="#2D81DC" opacity="1.000000" stroke="none" 
	d="
M122.077271,41.444489 
	C123.769348,42.012005 125.374138,42.964397 127.289505,44.004997 
	C127.417145,45.842144 127.234200,47.591084 126.545403,49.672470 
	C124.294510,49.318764 122.549461,48.632603 120.804420,47.946445 
	C121.199608,45.907421 121.594795,43.868393 122.077271,41.444489 
z"/>
<path fill="#3E8BDE" opacity="1.000000" stroke="none" 
	d="
M120.598770,48.256939 
	C122.549461,48.632603 124.294510,49.318764 126.391678,50.021255 
	C126.367897,52.516861 125.992004,54.996128 125.385834,57.771248 
	C123.516945,56.695511 121.878334,55.323921 119.868851,53.878372 
	C119.796364,52.058746 120.094749,50.313091 120.598770,48.256939 
z"/>
<path fill="#679BD3" opacity="1.000000" stroke="none" 
	d="
M99.986763,46.939896 
	C100.100693,40.928253 95.218864,43.442188 92.177887,42.211208 
	C95.771629,41.548367 99.561882,41.153557 103.663078,40.985489 
	C103.980782,42.079144 103.987541,42.946056 103.773987,44.434952 
	C103.617844,45.291840 103.682022,45.526745 103.763474,45.845219 
	C103.780754,45.928791 103.951065,45.917622 103.428741,45.833305 
	C102.904228,46.337223 102.902031,46.925461 102.876717,47.493469 
	C102.853600,47.473240 102.763138,47.451218 102.763138,47.451218 
	C102.497887,47.215466 102.232635,46.979713 101.300789,46.890701 
	C100.402832,47.108700 100.187019,47.076183 99.986763,46.939896 
z"/>
<path fill="#5A9BE0" opacity="1.000000" stroke="none" 
	d="
M57.048004,123.483757 
	C58.580490,122.768799 60.244186,122.346191 62.378204,121.899811 
	C64.376404,123.159225 65.904282,124.442421 67.714157,125.874252 
	C66.222946,126.685600 64.449722,127.348305 62.253128,128.029510 
	C60.279572,126.624039 58.729389,125.200073 57.048004,123.483757 
z"/>
<path fill="#3485DD" opacity="1.000000" stroke="none" 
	d="
M110.798866,34.053547 
	C112.875572,34.702152 114.952286,35.350758 117.393311,36.016182 
	C117.590919,38.120186 117.424225,40.207371 117.115318,42.669991 
	C115.031029,41.777847 113.088951,40.510269 110.969803,38.552608 
	C110.794785,36.592865 110.796829,35.323208 110.798866,34.053547 
z"/>
<path fill="#4A95E5" opacity="1.000000" stroke="none" 
	d="
M39.928192,39.658783 
	C37.441898,40.998356 35.006577,41.973866 32.187057,42.899124 
	C31.833529,40.922699 31.864199,38.996529 31.805843,36.667027 
	C32.241337,35.873867 32.765858,35.484043 33.626816,35.059532 
	C35.968559,36.448139 37.973858,37.871429 39.928192,39.658783 
z"/>
<path fill="#156ECF" opacity="1.000000" stroke="none" 
	d="
M33.856503,29.329824 
	C31.846312,27.767967 29.836121,26.206110 27.688301,24.537319 
	C30.745354,19.606874 33.270439,21.306227 35.717640,24.887114 
	C35.052097,26.770597 34.454300,28.050211 33.856503,29.329824 
z"/>
<path fill="#96C1F0" opacity="1.000000" stroke="none" 
	d="
M104.016022,91.106552 
	C103.044930,93.265289 102.143967,95.378593 101.091133,97.813408 
	C99.693893,97.344460 98.448517,96.554001 97.070038,95.465424 
	C98.143105,93.219727 99.349274,91.272148 101.130020,89.285477 
	C102.487381,89.796707 103.270180,90.347031 104.052971,90.897362 
	C104.052971,90.897362 104.086151,91.061134 104.016022,91.106552 
z"/>
<path fill="#2A81E0" opacity="1.000000" stroke="none" 
	d="
M34.058823,29.589300 
	C34.454300,28.050211 35.052097,26.770597 35.861862,25.190971 
	C37.994514,26.032896 39.915211,27.174833 42.029503,28.604095 
	C41.485489,30.007874 40.747883,31.124325 40.015007,32.601852 
	C38.100204,31.924875 36.180672,30.886826 34.058823,29.589300 
z"/>
<path fill="#67A8EF" opacity="1.000000" stroke="none" 
	d="
M120.525589,71.897293 
	C118.932610,70.450531 117.654373,68.813232 116.046585,67.018784 
	C116.220589,65.335518 116.724159,63.809399 117.537689,62.111282 
	C119.229568,63.283932 120.611488,64.628578 122.374039,66.125641 
	C122.116547,68.087624 121.478439,69.897194 120.525589,71.897293 
z"/>
<path fill="#8CBEF4" opacity="1.000000" stroke="none" 
	d="
M67.162018,113.939163 
	C65.956276,114.400261 64.750542,114.861351 63.325279,115.553329 
	C61.497585,114.336906 59.889420,112.889603 58.168938,111.130264 
	C59.756931,110.516518 61.457237,110.214806 63.586494,110.276886 
	C64.664261,111.128273 65.313080,111.615860 65.961891,112.103447 
	C65.961891,112.103447 66.136734,112.419624 66.337318,112.423523 
	C66.537903,112.427429 66.585014,112.396034 66.608200,112.674156 
	C66.808258,113.281242 66.985138,113.610207 67.162018,113.939163 
z"/>
<path fill="#2B3846" opacity="1.000000" stroke="none" 
	d="
M104.016708,90.533401 
	C103.270180,90.347031 102.487381,89.796707 101.417053,89.105057 
	C101.114967,88.796707 101.100426,88.629684 101.426781,88.161392 
	C101.696701,86.114632 101.625710,84.369133 101.554718,82.623642 
	C101.554718,82.623642 101.568810,82.574821 101.551689,82.554337 
	C102.970009,82.357529 104.405441,82.181206 106.008133,81.984337 
	C106.591782,83.486008 107.143883,84.906517 107.674431,86.271576 
	C106.424934,87.590042 105.202698,88.879745 104.016708,90.533401 
z"/>
<path fill="#1F3042" opacity="1.000000" stroke="none" 
	d="
M102.542915,47.838810 
	C102.763138,47.451218 102.853600,47.473240 103.073700,47.239460 
	C103.512886,46.642994 103.731979,46.280308 103.951065,45.917625 
	C103.951065,45.917622 103.780754,45.928791 104.175827,45.941811 
	C105.399994,45.945793 106.229080,45.936756 107.058167,45.927719 
	C107.058167,45.927719 106.991516,45.988140 107.094963,46.205830 
	C107.494675,46.599312 107.790932,46.775101 108.087196,46.950890 
	C108.087196,46.950890 108.065224,46.885986 108.043839,47.339005 
	C107.933655,49.653023 107.844849,51.514023 107.756042,53.375023 
	C107.756042,53.375023 107.783813,53.327114 107.804138,53.347122 
	C105.044945,52.665569 101.946381,52.305450 102.542915,47.838810 
z"/>
<path fill="#293644" opacity="1.000000" stroke="none" 
	d="
M66.516563,112.446022 
	C66.651222,111.835968 66.652443,111.103325 66.991989,110.598022 
	C68.045006,109.030907 69.226631,107.550209 70.358337,106.035973 
	C71.268860,107.852715 72.179382,109.669456 73.188805,111.917496 
	C73.287712,112.348801 73.222054,112.300102 72.841919,112.138489 
	C70.502861,112.116592 68.543938,112.256310 66.585014,112.396034 
	C66.585014,112.396034 66.537903,112.427429 66.516563,112.446022 
z"/>
<path fill="#0F233A" opacity="1.000000" stroke="none" 
	d="
M109.371994,39.403214 
	C108.572701,39.292797 107.665207,39.349331 106.977798,38.987614 
	C105.764656,38.349262 104.685684,37.455925 103.550545,36.669331 
	C104.542480,35.374512 105.534416,34.079693 106.877365,32.642982 
	C107.228378,32.501087 107.259399,32.543304 107.215454,32.979542 
	C107.908958,35.390923 108.646400,37.366070 109.383842,39.341217 
	C109.383842,39.341217 109.362923,39.381786 109.371994,39.403214 
z"/>
<path fill="#293645" opacity="1.000000" stroke="none" 
	d="
M93.126053,101.953247 
	C92.932335,103.786530 92.689804,105.670334 92.391640,107.986275 
	C90.255531,107.267448 88.700233,106.744072 87.144928,106.220688 
	C86.965126,105.794586 86.785316,105.368477 86.605515,104.942375 
	C88.521301,103.965836 90.437088,102.989296 92.747780,101.959824 
	C93.142685,101.906891 93.077240,102.003761 93.126053,101.953247 
z"/>
<path fill="#3E88D7" opacity="1.000000" stroke="none" 
	d="
M101.554565,32.973412 
	C99.937691,32.227337 98.582703,31.356855 97.074371,30.164410 
	C98.334999,29.170229 99.748962,28.498014 101.502884,27.764637 
	C102.529564,28.573763 103.216301,29.444054 103.942162,30.649933 
	C103.259674,31.606686 102.538071,32.227844 101.554565,32.973412 
z"/>
<path fill="#6092C7" opacity="1.000000" stroke="none" 
	d="
M25.674679,68.063904 
	C25.326757,70.279305 24.615665,72.458008 23.820492,75.035835 
	C22.833929,73.609718 21.931452,71.784485 20.814917,69.526329 
	C22.664131,68.909821 23.987820,68.468521 25.674679,68.063904 
z"/>
<path fill="#A5C9EF" opacity="1.000000" stroke="none" 
	d="
M68.012146,58.168579 
	C68.016563,57.263412 68.020981,56.358246 68.046600,54.998322 
	C70.057007,54.476517 72.046227,54.409466 74.452591,54.442383 
	C74.828392,55.561897 74.787056,56.581448 74.433861,57.898228 
	C72.085388,58.186501 70.048759,58.177540 68.012146,58.168579 
z"/>
<path fill="#7BA5D2" opacity="1.000000" stroke="none" 
	d="
M49.326595,53.157066 
	C48.355103,52.644741 47.706673,52.275101 46.999252,51.614937 
	C49.110634,51.710331 51.281002,52.096256 53.729408,52.713852 
	C52.554848,53.063599 51.102253,53.181675 49.326595,53.157066 
z"/>
<path fill="#17212C" opacity="1.000000" stroke="none" 
	d="
M28.324535,75.030670 
	C27.876816,74.550400 27.786238,74.103958 27.818089,73.331696 
	C29.239561,73.052010 30.538603,73.098152 31.837645,73.144287 
	C31.812681,73.783882 31.866373,74.961700 31.750418,74.978645 
	C30.744799,75.125603 29.708704,75.064018 28.324535,75.030670 
z"/>
<path fill="#1F3042" opacity="1.000000" stroke="none" 
	d="
M99.703156,47.181892 
	C100.187019,47.076183 100.402832,47.108700 100.797798,47.064957 
	C100.971008,48.427876 100.980606,49.763275 100.973213,51.595016 
	C100.590820,52.020241 100.225418,51.949116 99.581314,51.862831 
	C99.341583,50.373081 99.380562,48.898483 99.703156,47.181892 
z"/>
<path fill="#293644" opacity="1.000000" stroke="none" 
	d="
M65.984070,111.715485 
	C65.313080,111.615860 64.664261,111.128273 63.922035,110.319275 
	C63.935829,109.208366 64.043037,108.418877 64.269333,107.247971 
	C64.927704,108.353546 65.466980,109.840530 65.984070,111.715485 
z"/>
<path fill="#4A95E5" opacity="1.000000" stroke="none" 
	d="
M31.567654,42.875954 
	C31.690998,44.095100 31.536289,45.380882 31.053570,46.885670 
	C30.515223,46.101364 30.304886,45.098057 30.183891,43.779305 
	C30.612022,43.290108 30.950811,43.116352 31.567654,42.875954 
z"/>
<path fill="#709ED0" opacity="1.000000" stroke="none" 
	d="
M67.041565,119.402954 
	C68.339523,119.062927 69.782936,119.028679 71.658821,119.019745 
	C70.733727,121.314537 69.110565,121.621429 67.041565,119.402954 
z"/>
<path fill="#17212C" opacity="1.000000" stroke="none" 
	d="
M33.892639,80.986931 
	C32.988987,80.654739 32.110340,79.990273 31.181885,78.991814 
	C32.060600,79.323433 32.989120,79.989044 33.892639,80.986931 
z"/>
<path fill="#5A84B0" opacity="1.000000" stroke="none" 
	d="
M54.406540,42.791443 
	C54.045288,42.462242 53.971066,42.179794 53.848682,41.685349 
	C54.723778,41.499699 55.613983,41.534729 56.753227,41.802299 
	C56.243710,42.299736 55.485157,42.564625 54.406540,42.791443 
z"/>
<path fill="#709ED0" opacity="1.000000" stroke="none" 
	d="
M64.302658,117.200928 
	C65.106094,117.417557 66.002579,117.927376 66.902100,118.779465 
	C66.068657,118.579193 65.232185,118.036652 64.302658,117.200928 
z"/>
<path fill="#17212C" opacity="1.000000" stroke="none" 
	d="
M36.116871,76.115814 
	C35.362995,75.834641 34.505669,75.470947 33.648346,75.107254 
	C33.851257,74.800652 34.054173,74.494049 34.257084,74.187447 
	C34.845295,74.648224 35.433510,75.108994 36.108929,75.897522 
	C36.196133,76.225281 36.013424,76.033287 36.116871,76.115814 
z"/>
<path fill="#5A84B0" opacity="1.000000" stroke="none" 
	d="
M50.793739,40.779171 
	C50.332008,40.990040 49.663349,40.984642 48.920288,40.729954 
	C49.426197,40.508080 50.006508,40.535492 50.793739,40.779171 
z"/>
<path fill="#4C7FB4" opacity="1.000000" stroke="none" 
	d="
M55.794067,31.791189 
	C55.348858,32.044968 54.686478,32.085510 53.930000,31.892616 
	C54.416237,31.632105 54.996563,31.605030 55.794067,31.791189 
z"/>
<path fill="#0E54A0" opacity="1.000000" stroke="none" 
	d="
M111.845596,20.896303 
	C111.439766,21.392601 110.896446,21.645737 110.036720,21.844734 
	C110.382912,21.411444 111.045517,21.032293 111.845596,20.896303 
z"/>
<path fill="#0B0D0F" opacity="1.000000" stroke="none" 
	d="
M67.761047,58.388039 
	C70.048759,58.177540 72.085388,58.186501 74.557388,58.149818 
	C85.187195,63.802685 86.150299,71.719414 77.807182,79.910339 
	C76.810089,80.889244 76.227509,82.685143 76.153061,84.138229 
	C75.883499,89.399696 75.912590,94.676468 75.718384,100.395287 
	C72.748024,100.622810 69.888245,100.402512 66.664291,100.044418 
	C66.269562,96.921402 66.013458,93.917725 66.255898,90.954842 
	C66.744797,84.979965 66.004288,79.598602 61.281803,75.207367 
	C58.485023,72.606758 58.250675,69.232964 60.027531,65.402969 
	C62.512985,62.869274 65.011475,60.738388 67.761047,58.388039 
z"/>
<path fill="#10171F" opacity="1.000000" stroke="none" 
	d="
M89.712158,45.009071 
	C90.421898,45.032772 90.858986,45.150326 91.621353,45.376194 
	C91.049828,45.931858 90.153015,46.379204 88.911606,46.685627 
	C88.857857,46.064110 89.148682,45.583519 89.712158,45.009071 
z"/>
<path fill="#10171F" opacity="1.000000" stroke="none" 
	d="
M101.211143,82.637421 
	C101.625710,84.369133 101.696701,86.114632 101.453094,87.911285 
	C101.048195,86.192032 100.957878,84.421616 101.211143,82.637421 
z"/>
<path fill="#10171F" opacity="1.000000" stroke="none" 
	d="
M109.653610,39.308231 
	C108.646400,37.366070 107.908958,35.390923 107.221146,33.005112 
	C108.257324,32.940105 109.243881,33.285763 110.514648,33.842484 
	C110.796829,35.323208 110.794785,36.592865 110.796349,38.241943 
	C110.507759,38.839321 110.215561,39.057285 109.653610,39.308231 
z"/>
<path fill="#10171F" opacity="1.000000" stroke="none" 
	d="
M108.082565,53.318100 
	C107.844849,51.514023 107.933655,49.653023 108.077164,47.331017 
	C108.713028,48.297829 109.294182,49.725643 109.871353,51.547970 
	C109.381271,52.382046 108.895180,52.821613 108.082565,53.318100 
z"/>
<path fill="#10171F" opacity="1.000000" stroke="none" 
	d="
M106.980362,45.551838 
	C106.229080,45.936756 105.399994,45.945793 104.158554,45.858238 
	C103.682022,45.526745 103.617844,45.291840 103.766556,44.760208 
	C104.953819,44.700970 105.928185,44.938461 106.980362,45.551838 
z"/>
<path fill="#10171F" opacity="1.000000" stroke="none" 
	d="
M108.197052,46.595238 
	C107.790932,46.775101 107.494675,46.599312 107.121361,46.168880 
	C107.465179,46.022690 107.886047,46.131134 108.197052,46.595238 
z"/>
<path fill="#10171F" opacity="1.000000" stroke="none" 
	d="
M66.608200,112.674156 
	C68.543938,112.256310 70.502861,112.116592 72.826225,112.100754 
	C71.441643,112.806244 69.692619,113.387848 67.552811,113.954315 
	C66.985138,113.610207 66.808258,113.281242 66.608200,112.674156 
z"/>
<path fill="#10171F" opacity="1.000000" stroke="none" 
	d="
M103.428741,45.833305 
	C103.731979,46.280308 103.512886,46.642994 103.096817,47.259689 
	C102.902031,46.925461 102.904228,46.337223 103.428741,45.833305 
z"/>
</svg>